<?xml version="1.0" encoding="UTF-8" standalone="no"?>
<!-- Created with Inkscape (http://www.inkscape.org/) -->

<svg
   xmlns:dc="http://purl.org/dc/elements/1.1/"
   xmlns:cc="http://creativecommons.org/ns#"
   xmlns:rdf="http://www.w3.org/1999/02/22-rdf-syntax-ns#"
   xmlns:svg="http://www.w3.org/2000/svg"
   xmlns="http://www.w3.org/2000/svg"
   xmlns:sodipodi="http://sodipodi.sourceforge.net/DTD/sodipodi-0.dtd"
   xmlns:inkscape="http://www.inkscape.org/namespaces/inkscape"
   width="134.45685mm"
   height="134.44846mm"
   viewBox="0 0 134.45685 134.44846"
   version="1.1"
   id="svg53"
   inkscape:version="0.92.4 (5da689c313, 2019-01-14)"
   sodipodi:docname="Brand_Icon.svg">
  <defs
     id="defs47" />
  <sodipodi:namedview
     id="base"
     pagecolor="#ffffff"
     bordercolor="#666666"
     borderopacity="1.0"
     inkscape:pageopacity="0.0"
     inkscape:pageshadow="2"
     inkscape:zoom="1.4"
     inkscape:cx="172.07824"
     inkscape:cy="235.67186"
     inkscape:document-units="mm"
     inkscape:current-layer="layer1"
     showgrid="false"
     inkscape:window-width="1920"
     inkscape:window-height="1057"
     inkscape:window-x="78"
     inkscape:window-y="892"
     inkscape:window-maximized="1" />
  <metadata
     id="metadata50">
    <rdf:RDF>
      <cc:Work
         rdf:about="">
        <dc:format>image/svg+xml</dc:format>
        <dc:type
           rdf:resource="http://purl.org/dc/dcmitype/StillImage" />
        <dc:title />
      </cc:Work>
    </rdf:RDF>
  </metadata>
  <g
     inkscape:label="Layer 1"
     inkscape:groupmode="layer"
     id="layer1"
     transform="translate(-32.106215,-59.496394)">
    <path
       style="fill:#28a526;stroke-width:0.26458332;fill-opacity:1"
       d="m 93.190022,193.80311 c -0.727604,-0.1207 -2.692135,-0.41654 -4.365625,-0.65742 C 75.533718,191.23268 62.323737,184.63131 52.349094,174.91806 41.424648,164.27989 34.511058,150.4482 32.434062,135.075 c -0.490354,-3.62943 -0.416456,-13.91772 0.126798,-17.65319 2.396408,-16.47795 10.404125,-31.203032 22.689941,-41.723651 9.754282,-8.35281 20.157028,-13.24199 33.097246,-15.555352 4.48833,-0.802393 16.746903,-0.873973 21.200463,-0.123793 12.2304,2.060146 22.98946,6.848741 32.32485,14.38699 3.03797,2.453134 7.72684,7.180644 10.18197,10.265874 5.85302,7.35516 10.4666,16.751462 12.66624,25.796872 1.26059,5.18385 1.65927,8.38569 1.81191,14.55209 0.19743,7.97506 -0.58025,13.99546 -2.72398,21.08776 -7.21048,23.85512 -26.66465,41.53175 -51.3049,46.61713 -1.18195,0.24394 -2.17281,0.39277 -6.48229,0.97373 -1.95671,0.26377 -11.406925,0.34011 -12.832288,0.10365 z m -1.875509,-34.48293 c 1.16809,-0.89095 1.537903,-1.61277 3.407171,-6.65039 0.809959,-2.18281 2.601857,-7.00484 3.981992,-10.71562 1.380134,-3.71078 3.461304,-9.30672 4.624814,-12.43542 1.16351,-3.1287 3.24649,-8.72463 4.62885,-12.43541 8.60498,-23.099029 8.12537,-21.481115 7.03539,-23.732708 -1.45164,-2.998685 -6.03075,-3.437927 -8.02899,-0.770165 -0.33891,0.452464 -1.80914,4.037348 -3.26718,7.966413 -1.45804,3.92906 -4.046356,10.89422 -5.75182,15.47812 -1.705461,4.58391 -4.761616,12.79922 -6.791449,18.25625 -2.029835,5.45703 -4.515315,12.13334 -5.523293,14.83623 -2.379011,6.37934 -2.428671,7.83539 -0.334952,9.821 1.068451,1.01327 1.86382,1.27804 3.569629,1.1883 1.146423,-0.0603 1.718241,-0.24858 2.449838,-0.8066 z M 77.82561,147.68788 c 1.922095,-1.06172 2.822808,-3.94485 1.89724,-6.07294 -0.203663,-0.46827 -3.716007,-4.18435 -7.805208,-8.25796 -4.089201,-4.07361 -7.43491,-7.58678 -7.43491,-7.80704 0,-0.22027 3.22767,-3.61435 7.172597,-7.5424 3.944929,-3.92805 7.516804,-7.67124 7.937499,-8.31819 2.106946,-3.2401 -0.145645,-7.42268 -3.997597,-7.42268 -0.563136,0 -1.359059,0.12457 -1.768713,0.27683 -0.910373,0.33836 -23.102119,22.44405 -23.102119,23.01253 0,0.22288 4.970859,5.35844 11.046354,11.41235 9.42001,9.38655 11.202172,11.04796 12.104687,11.28451 1.338998,0.35097 2.624896,0.16704 3.95017,-0.56501 z m 48.42819,0.16873 c 1.05759,-0.52977 22.36643,-21.78148 22.36643,-22.30646 0,-0.56698 -22.18929,-22.66245 -23.10212,-23.00443 -3.73746,-1.40022 -7.54275,1.99686 -6.53099,5.83038 0.27166,1.0293 1.22404,2.08598 8.09135,8.97759 4.28088,4.29604 7.78343,7.92827 7.78343,8.07163 0,0.14336 -3.22245,3.47451 -7.16101,7.40256 -8.52784,8.50509 -9.08026,9.28947 -8.41186,11.94394 0.76128,3.02329 4.11883,4.5104 6.96477,3.08479 z"
       id="path66"
       inkscape:connector-curvature="0" />
  </g>
</svg>
