<?xml version="1.0" encoding="UTF-8" standalone="no"?>
<!-- Created with Inkscape (http://www.inkscape.org/) -->

<svg
   xmlns:dc="http://purl.org/dc/elements/1.1/"
   xmlns:cc="http://creativecommons.org/ns#"
   xmlns:rdf="http://www.w3.org/1999/02/22-rdf-syntax-ns#"
   xmlns:svg="http://www.w3.org/2000/svg"
   xmlns="http://www.w3.org/2000/svg"
   xmlns:sodipodi="http://sodipodi.sourceforge.net/DTD/sodipodi-0.dtd"
   xmlns:inkscape="http://www.inkscape.org/namespaces/inkscape"
   width="93.024246mm"
   height="92.833199mm"
   viewBox="0 0 93.024246 92.833199"
   version="1.1"
   id="svg8"
   inkscape:version="0.92.4 (5da689c313, 2019-01-14)"
   sodipodi:docname="img_smiley_happy.svg">
  <defs
     id="defs2" />
  <sodipodi:namedview
     id="base"
     pagecolor="#ffffff"
     bordercolor="#666666"
     borderopacity="1.0"
     inkscape:pageopacity="0.0"
     inkscape:pageshadow="2"
     inkscape:zoom="0.7"
     inkscape:cx="-49.709337"
     inkscape:cy="156.91071"
     inkscape:document-units="mm"
     inkscape:current-layer="layer1"
     showgrid="false"
     inkscape:window-width="1920"
     inkscape:window-height="1057"
     inkscape:window-x="78"
     inkscape:window-y="892"
     inkscape:window-maximized="1" />
  <metadata
     id="metadata5">
    <rdf:RDF>
      <cc:Work
         rdf:about="">
        <dc:format>image/svg+xml</dc:format>
        <dc:type
           rdf:resource="http://purl.org/dc/dcmitype/StillImage" />
        <dc:title />
      </cc:Work>
    </rdf:RDF>
  </metadata>
  <g
     inkscape:label="Layer 1"
     inkscape:groupmode="layer"
     id="layer1"
     transform="translate(0.01057313,-0.007354)">
    <path
       style="fill:#28a526;stroke-width:0.26458332;fill-opacity:1"
       d="m 39.225507,92.486442 c -5.294161,-0.95086 -6.599131,-1.33359 -11.112501,-3.25912 -6.20963,-2.6492 -10.72542,-5.80415 -15.47812,-10.81374 -3.3286393,-3.50857 -5.7009893,-6.88154 -7.7858293,-11.06977 -3.07493,-6.17723 -3.80579,-8.52374 -4.53248,-14.55208 -0.93586,-7.76355 0.17122,-16.9432 2.87182,-23.8125 0.99824,-2.53913 3.512,-7.10985 5.28177,-9.60372 2.1068093,-2.96881 7.3060393,-8.18876 10.5147193,-10.5566299 2.27468,-1.6786201 7.09196,-4.5782001 7.6061,-4.5782001 0.11382,0 0.64385,-0.23417 1.17786,-0.52037 0.88663,-0.47521 2.60156,-1.06805 6.95875,-2.405588 2.21407,-0.67967 7.867081,-1.30737 11.773961,-1.30737 3.90687,0 9.55988,0.6277 11.77395,1.30737 4.35719,1.337538 6.07212,1.930378 6.95875,2.405588 0.53401,0.2862 1.06404,0.52037 1.17786,0.52037 0.51414,0 5.33142,2.89958 7.6061,4.5782001 3.20868,2.3678699 8.40791,7.5878199 10.51472,10.5566299 1.76977,2.49387 4.28354,7.06459 5.28177,9.60372 2.7006,6.8693 3.80768,16.04895 2.87182,23.8125 -0.72669,6.02834 -1.45755,8.37485 -4.53248,14.55208 -2.08484,4.18823 -4.45719,7.5612 -7.78583,11.06977 -4.74441,5.00086 -9.2465,8.14858 -15.47812,10.82184 -4.1364,1.77444 -7.17949,2.64453 -11.77396,3.36645 -2.35503,0.37005 -11.61614,0.29309 -13.89063,-0.11543 z m 12.03855,-3.97929 c 8.626,-1.33812 13.99479,-3.47074 20.03136,-7.95697 3.82814,-2.84499 5.66378,-4.57288 8.09439,-7.61926 1.88849,-2.36691 5.21174,-7.66259 5.21174,-8.30503 0,-0.19023 0.2349,-0.8063 0.522,-1.36906 0.76012,-1.48996 1.22696,-2.88986 2.29876,-6.89323 l 0.95629,-3.57187 0.0297,-6.4823 c 0.0201,-4.37785 -0.0755,-6.86882 -0.29432,-7.67291 -0.17822,-0.65485 -0.52214,-2.02407 -0.76428,-3.04271 -1.38779,-5.83836 -5.7068,-13.48092 -10.51631,-18.60884 -2.91109,-3.1038 -9.46671,-7.7561899 -12.48069,-8.8572799 -0.57755,-0.211 -1.76448,-0.68395 -2.6376,-1.0509901 -3.86983,-1.62681 -11.1012,-3.1006 -15.21354,-3.1006 -4.11235,0 -11.343721,1.47379 -15.213551,3.1006 -0.87312,0.3670401 -2.06004,0.8399901 -2.6376,1.0509901 -3.01398,1.10109 -9.5696,5.7534799 -12.48069,8.8572799 -4.5564,4.85804 -8.9919793,12.53969 -10.3632593,17.94738 -0.16606,0.65484 -0.5133,2.02406 -0.77164,3.04271 -0.39177,1.54474 -0.46479,2.92779 -0.44001,8.33437 l 0.0297,6.4823 0.95628,3.57187 c 1.0718,4.00337 1.53864,5.40327 2.29876,6.89323 0.2871,0.56276 0.522,1.17883 0.522,1.36906 0,0.64244 3.3232493,5.93812 5.2117393,8.30503 2.43061,3.04638 4.26625,4.77427 8.0944,7.61926 4.32023,3.2107 8.06061,5.06536 13.15219,6.5215 5.986881,1.71218 11.506671,2.1952 16.404171,1.43547 z m -7.01146,-6.65049 c -10.290801,-2.21605 -18.789551,-10.35399 -22.860731,-21.8902 -0.89741,-2.54292 -2.25915,-7.74655 -2.5458,-9.7283 -0.15152,-1.0475 -0.0934,-1.3153 0.39081,-1.79947 0.71064,-0.71064 0.97317,-0.63776 4.37822,1.21524 10.08447,5.48792 16.393531,7.57653 22.886461,7.57653 6.49292,0 12.80198,-2.08861 22.88645,-7.57653 3.40505,-1.853 3.66758,-1.92588 4.37822,-1.21524 0.48417,0.48417 0.54233,0.75197 0.39081,1.79947 -0.28665,1.98175 -1.64839,7.18538 -2.5458,9.7283 -3.81734,10.81691 -11.49255,18.66641 -20.87635,21.35041 -3.14271,0.89889 -4.34846,0.99929 -6.48229,0.53979 z m 5.14247,-2.11217 c 7.62076,-1.89396 14.36923,-7.58808 18.27887,-15.42305 2.53836,-5.08692 5.06675,-13.77867 4.00815,-13.77867 -0.1207,0 -1.63875,0.79194 -3.37343,1.75987 -8.11347,4.5272 -15.75909,6.97138 -21.8071,6.97138 -6.04802,0 -13.693641,-2.44418 -21.807111,-6.97138 -1.73468,-0.96793 -3.25273,-1.75987 -3.37343,-1.75987 -0.39401,0 -0.23222,1.45865 0.47116,4.24793 2.8823,11.42988 9.20305,19.82979 17.683581,23.50044 4.29122,1.85738 6.80916,2.2263 9.91931,1.45335 z m -23.549711,-41.453 c -2.76994,-0.78524 -5.76544,-3.41207 -7.07323,-6.20271 -0.63301,-1.35077 -0.71328,-1.83532 -0.71328,-4.30574 0,-2.60179 0.0558,-2.89702 0.85377,-4.51795 1.05436,-2.14171 3.423,-4.47677 5.55411,-5.47537 1.37307,-0.64339 1.82806,-0.71674 4.4456,-0.71674 2.75084,0 3.01419,0.0483 4.65024,0.85377 2.14171,1.05436 4.47676,3.423 5.475361,5.55411 0.63665,1.35868 0.71675,1.84008 0.71675,4.30774 0,2.46766 -0.0801,2.94907 -0.71675,4.30774 -0.985581,2.10333 -3.335831,4.50082 -5.416031,5.5249 -1.43232,0.70513 -2.02921,0.83821 -4.12107,0.91882 -1.4932,0.0575 -2.91726,-0.0393 -3.65547,-0.24857 z m 7.06778,-2.56417 c 1.91834,-0.9444 3.3304,-2.41467 4.2905,-4.46738 0.55663,-1.19008 0.69583,-1.88427 0.69722,-3.4769 0.002,-1.71361 -0.11803,-2.23322 -0.86072,-3.74184 -1.00596,-2.04339 -2.4441,-3.44398 -4.52975,-4.41147 -2.1165,-0.98179 -5.09076,-0.98179 -7.20725,0 -2.08565,0.96749 -3.52379,2.36808 -4.52975,4.41147 -1.57803,3.20542 -1.05105,6.88389 1.38339,9.65657 2.63389,2.99982 7.081,3.83892 10.75636,2.02955 z m 28.121811,2.56417 c -2.76995,-0.78524 -5.76544,-3.41207 -7.07323,-6.20271 -0.63302,-1.35077 -0.71329,-1.83532 -0.71329,-4.30574 0,-2.60179 0.0558,-2.89702 0.85377,-4.51795 1.05436,-2.14171 3.42301,-4.47677 5.55412,-5.47537 1.37306,-0.64339 1.82805,-0.71674 4.44559,-0.71674 2.75085,0 3.01419,0.0483 4.65024,0.85377 2.14171,1.05436 4.47677,3.423 5.47536,5.55411 0.63665,1.35868 0.71675,1.84008 0.71675,4.30774 0,2.46766 -0.0801,2.94907 -0.71675,4.30774 -0.98557,2.10333 -3.33583,4.50082 -5.41602,5.5249 -1.43233,0.70513 -2.02922,0.83821 -4.12107,0.91882 -1.49321,0.0575 -2.91727,-0.0393 -3.65547,-0.24857 z m 7.06777,-2.56417 c 1.91834,-0.9444 3.3304,-2.41467 4.2905,-4.46738 0.55663,-1.19008 0.69584,-1.88427 0.69722,-3.4769 0.002,-1.71361 -0.11803,-2.23322 -0.86072,-3.74184 -1.00596,-2.04339 -2.4441,-3.44398 -4.52975,-4.41147 -2.11649,-0.98179 -5.09075,-0.98179 -7.20725,0 -2.08565,0.96749 -3.52379,2.36808 -4.52975,4.41147 -1.57802,3.20542 -1.05105,6.88389 1.3834,9.65657 2.63388,2.99982 7.08099,3.83892 10.75635,2.02955 z"
       id="path45"
       inkscape:connector-curvature="0" />
  </g>
</svg>
