<?xml version="1.0" encoding="UTF-8" standalone="no"?>
<svg
   xmlns:dc="http://purl.org/dc/elements/1.1/"
   xmlns:cc="http://creativecommons.org/ns#"
   xmlns:rdf="http://www.w3.org/1999/02/22-rdf-syntax-ns#"
   xmlns:svg="http://www.w3.org/2000/svg"
   xmlns="http://www.w3.org/2000/svg"
   xmlns:sodipodi="http://sodipodi.sourceforge.net/DTD/sodipodi-0.dtd"
   xmlns:inkscape="http://www.inkscape.org/namespaces/inkscape"
   width="191.20557mm"
   height="191.20557mm"
   viewBox="0 0 191.20557 191.20557"
   version="1.1"
   id="svg8"
   sodipodi:docname="drawing.svg"
   inkscape:version="1.0.1 (3bc2e813f5, 2020-09-07)">
  <defs
     id="defs2" />
  <sodipodi:namedview
     id="base"
     pagecolor="#ffffff"
     bordercolor="#666666"
     borderopacity="1.0"
     inkscape:pageopacity="0.0"
     inkscape:pageshadow="2"
     inkscape:zoom="0.49497475"
     inkscape:cx="-581.23847"
     inkscape:cy="170.45146"
     inkscape:document-units="mm"
     inkscape:current-layer="layer2"
     inkscape:document-rotation="0"
     showgrid="false"
     inkscape:window-width="1920"
     inkscape:window-height="1057"
     inkscape:window-x="78"
     inkscape:window-y="892"
     inkscape:window-maximized="1" />
  <metadata
     id="metadata5">
    <rdf:RDF>
      <cc:Work
         rdf:about="">
        <dc:format>image/svg+xml</dc:format>
        <dc:type
           rdf:resource="http://purl.org/dc/dcmitype/StillImage" />
        <dc:title></dc:title>
      </cc:Work>
    </rdf:RDF>
  </metadata>
  <g
     inkscape:groupmode="layer"
     id="layer2"
     inkscape:label="Layer 2">
    <g
       id="g868"
       style="display:inline">
      <path
         style="fill:#f5f5f5;stroke-width:0.352778"
         d="M 0,95.602785 V 0 H 95.602785 191.20557 V 95.602785 191.20557 H 95.602785 0 Z m 164.74723,86.478885 c 11.91712,-2.13366 15.59088,-5.94124 17.36762,-18.0002 0.65218,-4.42651 0.65218,-132.178079 0,-136.604586 -1.80649,-12.260893 -5.77249,-16.226897 -18.03338,-18.0333813 -4.42651,-0.6521888 -132.178079,-0.6521888 -136.604586,0 -5.750137,0.8472083 -9.579832,2.1795913 -11.896914,4.1390353 l -1.176976,0.995312 30.19295,30.194483 30.192951,30.194481 v 20.804278 20.804278 l -30.190785,30.20439 -30.190783,30.20438 1.133721,0.95397 c 2.864554,2.41036 7.546645,3.82162 14.668892,4.42145 5.631646,0.47429 131.79161,0.2137 134.53729,-0.27789 z m -84.247152,-78.4619 c 0.06031,-3.795836 0.205761,-6.997256 0.323233,-7.114269 0.117471,-0.117013 3.270116,-0.169556 7.005877,-0.116762 l 6.792293,0.09599 -4.397411,4.586111 c -2.418574,2.52236 -5.620562,5.68059 -7.115525,7.01828 l -2.718114,2.43217 z m 0.108391,-13.396847 c -0.115291,-0.63059 -0.162172,-3.014331 -0.104179,-5.297198 l 0.105438,-4.150671 5.287258,5.297199 5.287253,5.297198 H 86.001164 80.818089 Z M 56.760873,117.13739 c 1.435216,-0.41356 3.856154,-1.23269 5.379861,-1.82029 l 2.770382,-1.06837 v -9.32298 -9.322965 h -8.466667 -8.466668 v 2.469445 2.46944 h 5.653635 5.653631 l -0.09738,5.34661 -0.09738,5.34661 -1.924935,0.6539 c -7.242067,2.4601 -15.338582,1.21766 -19.557406,-3.00117 -3.174183,-3.17418 -4.624879,-7.41605 -4.603661,-13.461224 0.02027,-5.773907 1.229653,-9.296845 4.328971,-12.610268 5.402203,-5.775389 16.093639,-5.966923 24.623587,-0.441124 1.333811,0.864058 2.549924,1.574412 2.702469,1.578564 0.152548,0.0042 0.231923,-1.540263 0.176389,-3.432034 L 64.734727,77.08195 61.759618,75.894634 c -8.303137,-3.313638 -17.229298,-3.336629 -23.874227,-0.06149 -4.985144,2.457065 -8.694678,7.180591 -10.261825,13.066865 -0.824346,3.096281 -0.826991,10.535257 -0.0049,13.840821 2.019604,8.1209 7.340422,13.15912 15.773025,14.93533 3.302681,0.69566 10.025409,0.42474 13.369203,-0.53877 z"
         id="path874" />
      <path
         style="fill:#909090;stroke-width:0.352778"
         d="m 43.39167,117.67616 c -8.432603,-1.77621 -13.753421,-6.81443 -15.773025,-14.93533 -0.82207,-3.305566 -0.819425,-10.744542 0.0049,-13.840823 1.567147,-5.886274 5.276681,-10.6098 10.261825,-13.066865 6.644929,-3.275137 15.57109,-3.252146 23.874227,0.06149 l 2.975109,1.187316 0.100969,3.439584 c 0.05553,1.891771 -0.02385,3.436186 -0.176389,3.432034 -0.152545,-0.0042 -1.368658,-0.714506 -2.702469,-1.578564 -8.529948,-5.525799 -19.221384,-5.334265 -24.623587,0.441124 -3.099318,3.313423 -4.308705,6.836361 -4.328971,12.610268 -0.02122,6.045176 1.429478,10.287046 4.603661,13.461226 4.218824,4.21883 12.315339,5.46127 19.557406,3.00117 l 1.924935,-0.6539 0.09738,-5.34661 0.09738,-5.34661 H 53.63139 47.977755 v -2.469442 -2.469445 h 8.466668 8.466667 v 9.322967 9.32298 l -2.770382,1.06837 c -5.195041,2.00342 -7.725082,2.56378 -12.222675,2.70713 -2.737012,0.0872 -5.04384,-0.0358 -6.526389,-0.34807 z M 74.788895,95.779174 V 74.436117 h 13.758334 13.758331 v 2.469444 2.469445 H 91.589937 80.874312 l -0.220486,1.102431 c -0.280872,1.404362 -0.27946,9.0485 0.0018,10.098264 l 0.212715,0.79375 h 9.131078 9.131079 v 2.469445 2.469445 h -9.156239 -9.156235 l -0.246242,1.312576 c -0.135432,0.721918 -0.138586,5.405043 -0.007,10.406943 l 0.239321,9.09437 H 77.796488 74.788895 Z M 106.5389,115.00556 v -2.11666 h 2.82222 2.82222 V 95.779174 78.66945 h -2.82222 -2.82222 v -2.116666 -2.116667 h 8.46666 8.46667 v 2.116667 2.116666 h -2.82222 -2.82222 V 95.779174 112.8889 h 2.82222 2.82222 v 2.11666 2.11667 h -8.46667 -8.46666 z M 132.99723,95.751223 V 74.380216 l 10.31875,0.135812 c 11.30411,0.148784 11.75372,0.221488 14.94409,2.416521 4.41022,3.034312 4.47394,10.466554 0.12167,14.191937 -0.83744,0.716813 -1.65279,1.303299 -1.81189,1.303299 -0.84792,0 -0.0726,0.616892 1.45888,1.16084 2.69829,0.958349 4.61674,2.625926 5.92224,5.147818 1.02872,1.987227 1.14904,2.529037 1.14904,5.174207 0,3.63743 -0.84269,6.11649 -2.85703,8.4049 -1.6537,1.8787 -5.49369,3.91694 -8.39181,4.45433 -1.04513,0.19379 -6.16482,0.35235 -11.37709,0.35235 h -9.47685 z m 17.94473,16.087407 c 3.8223,-0.43945 6.19512,-1.70091 7.38462,-3.92584 0.70551,-1.31965 0.81155,-1.95348 0.71278,-4.26049 -0.14272,-3.33378 -0.74251,-4.288643 -3.59677,-5.726099 -2.01233,-1.013443 -2.14303,-1.030327 -9.24466,-1.194269 l -7.20348,-0.166293 v 7.808851 7.80885 l 4.49792,-0.003 c 2.47386,-0.001 5.82617,-0.15539 7.44959,-0.34204 z m 1.31379,-21.19848 c 4.20862,-2.08564 4.55167,-8.527624 0.54842,-10.298452 -1.31475,-0.581575 -2.63508,-0.733442 -7.69832,-0.885468 l -6.1114,-0.183498 v 6.270562 6.270566 l 5.76477,-0.157756 c 5.21721,-0.142772 5.92926,-0.239271 7.49653,-1.015954 z"
         id="path872" />
      <path
         style="fill:#474747;stroke-width:0.352778"
         d="m 30.203967,182.35915 c -6.517562,-0.54872 -11.359173,-1.91731 -14.053896,-3.97264 -0.806313,-0.615 -1.454954,-1.25543 -1.441425,-1.4232 0.03177,-0.39394 60.080249,-60.47672 60.080249,-60.11456 0,0.15041 1.349375,0.27348 2.998611,0.27348 h 2.998611 v -3.32526 -3.32525 l 7.081687,-7.08169 7.081689,-7.081689 h 2.090533 2.090537 v -2.469445 -2.469445 h -3.97316 -3.973164 L 85.98518,86.161707 c -3.596718,-3.602723 -5.199063,-5.45106 -5.199063,-5.997223 v -0.789478 h 10.759723 10.75972 v -2.477043 -2.477044 l -14.006376,0.02335 -14.006383,0.02335 -29.903818,-29.902265 -29.903819,-29.902268 0.770688,-0.82036 c 1.755742,-1.868903 6.404139,-3.542201 12.221032,-4.3992454 4.426507,-0.6521888 132.178076,-0.6521888 136.604586,0 10.53967,1.5528854 14.96752,4.9083574 17.04661,12.9181024 1.43141,5.51456 1.43443,5.669275 1.43443,73.417583 0,67.682734 -0.003,67.845174 -1.42543,73.417564 -1.66331,6.51673 -5.4255,10.26475 -11.98012,11.93501 -5.35168,1.36372 -5.09267,1.35847 -71.08473,1.44069 -35.410072,0.0441 -65.950791,-0.0519 -67.868263,-0.21329 z m 93.268263,-67.35359 v -2.11666 h -2.82222 -2.82222 V 95.779174 78.66945 h 2.82222 2.82222 v -2.116666 -2.116667 h -8.46667 -8.46666 v 2.116667 2.116666 h 2.82222 2.82222 V 95.779174 112.8889 h -2.82222 -2.82222 v 2.11666 2.11667 h 8.46666 8.46667 z m 30.37894,1.76432 c 2.89812,-0.53739 6.73811,-2.57563 8.39181,-4.45433 2.01434,-2.28841 2.85703,-4.76747 2.85703,-8.4049 0,-2.64517 -0.12032,-3.18698 -1.14904,-5.174207 -1.3055,-2.521892 -3.22395,-4.189469 -5.92224,-5.147818 -1.53152,-0.543948 -2.3068,-1.16084 -1.45888,-1.16084 0.1591,0 0.97445,-0.586486 1.81189,-1.303299 4.35227,-3.725383 4.28855,-11.157625 -0.12167,-14.191937 -3.19037,-2.195033 -3.63998,-2.267737 -14.94409,-2.416521 l -10.31875,-0.135812 v 21.371007 21.371007 h 9.47685 c 5.21227,0 10.33196,-0.15856 11.37709,-0.35235 z m -14.85672,-12.39539 v -7.808851 l 7.20348,0.166293 c 7.10163,0.163942 7.23233,0.180826 9.24466,1.194269 2.85426,1.437456 3.45405,2.392319 3.59677,5.726099 0.28182,6.58273 -3.25169,8.52105 -15.54699,8.52836 l -4.49792,0.003 z m 0,-18.831196 v -6.270562 l 6.1114,0.183498 c 7.17703,0.215494 8.86398,0.699671 9.87721,2.834897 0.82584,1.740345 0.74762,4.034018 -0.2018,5.916768 -0.60569,1.201131 -1.20404,1.77738 -2.52551,2.432255 -1.56727,0.776683 -2.27932,0.873182 -7.49653,1.015954 l -5.76477,0.157756 z"
         id="path870" />
    </g>
  </g>
</svg>
