<?xml version="1.0" standalone="no"?>
<!DOCTYPE svg PUBLIC "-//W3C//DTD SVG 20010904//EN"
 "http://www.w3.org/TR/2001/REC-SVG-20010904/DTD/svg10.dtd">
<svg version="1.0" xmlns="http://www.w3.org/2000/svg"
 width="542.000000pt" height="542.000000pt" viewBox="0 0 542.000000 542.000000"
 preserveAspectRatio="xMidYMid meet">
<metadata>
Created by potrace 1.11, written by Peter Selinger 2001-2013
</metadata>
<g transform="translate(0.000000,542.000000) scale(0.100000,-0.100000)"
fill="#000000" stroke="none">
<path d="M1487 5273 c673 -2 1773 -2 2445 0 673 1 123 2 -1222 2 -1345 0
-1895 -1 -1223 -2z"/>
<path d="M145 2710 c0 -1345 1 -1895 2 -1222 2 672 2 1772 0 2445 -1 672 -2
122 -2 -1223z"/>
<path d="M5275 2710 c0 -1345 1 -1895 2 -1222 2 672 2 1772 0 2445 -1 672 -2
122 -2 -1223z"/>
<path d="M3555 3671 c-81 -32 -98 -42 -223 -135 -91 -67 -162 -144 -162 -175
0 -50 110 -426 209 -716 67 -195 112 -346 243 -825 80 -292 111 -360 163 -360
27 0 55 29 55 57 0 11 -11 46 -24 79 -25 61 -103 331 -176 609 -23 88 -88 300
-145 470 -57 171 -126 390 -155 487 -51 175 -52 177 -33 203 30 42 211 166
287 196 85 34 137 36 235 9 127 -36 144 -48 182 -137 27 -63 33 -92 34 -148 0
-65 -4 -78 -56 -186 -40 -83 -66 -123 -90 -141 -48 -37 -197 -123 -279 -163
-39 -18 -77 -39 -85 -45 -36 -30 -3 -90 49 -90 56 0 338 162 409 235 50 51 91
120 139 235 69 166 4 416 -130 496 -75 45 -190 74 -293 74 -68 -1 -97 -6 -154
-29z"/>
<path d="M2482 3217 c-43 -44 -45 -107 -5 -149 39 -41 79 -38 126 10 40 41 48
80 22 102 -8 7 -15 18 -15 25 0 21 -35 45 -66 45 -21 0 -40 -10 -62 -33z"/>
<path d="M2507 2792 c-25 -28 -21 -80 18 -252 69 -297 87 -375 105 -455 11
-44 28 -123 39 -175 67 -318 99 -400 156 -400 25 0 55 29 55 52 0 8 -9 41 -20
74 -21 61 -78 293 -105 430 -8 43 -24 113 -34 154 -10 41 -29 120 -41 175 -12
55 -35 153 -51 217 -16 64 -29 128 -29 141 0 49 -61 74 -93 39z"/>
<path d="M1897 2722 c-22 -24 -21 -52 3 -137 11 -39 27 -119 36 -180 8 -60 26
-167 40 -238 35 -185 31 -466 -9 -602 -15 -52 -59 -116 -105 -155 l-37 -32
-105 4 c-85 4 -114 9 -152 27 -165 83 -279 234 -358 476 -34 103 -99 247 -127
277 -9 10 -26 18 -38 18 -45 0 -50 -21 -51 -204 -1 -154 -4 -181 -28 -266 -28
-99 -61 -158 -138 -244 -41 -46 -46 -48 -78 -41 -52 11 -148 118 -203 224 -24
48 -58 138 -76 204 l-33 117 4 250 c2 182 6 252 15 262 19 18 16 62 -5 81 -27
25 -55 21 -86 -12 -27 -29 -28 -34 -37 -183 -12 -215 -6 -439 15 -508 9 -30
23 -79 31 -107 37 -132 130 -281 241 -382 54 -50 84 -61 162 -61 33 0 54 7 79
26 50 38 158 168 182 220 23 47 61 197 62 242 0 22 4 17 18 -23 29 -81 79
-176 123 -233 67 -87 193 -198 263 -233 57 -28 77 -32 197 -39 155 -10 159 -9
260 81 39 35 74 77 91 110 39 79 60 227 61 439 1 151 -3 195 -26 315 -15 77
-34 185 -43 241 -20 134 -49 241 -71 265 -22 24 -56 24 -77 1z"/>
<path d="M1487 143 c673 -2 1773 -2 2445 0 673 1 123 2 -1222 2 -1345 0 -1895
-1 -1223 -2z"/>
</g>
</svg>
