<?xml version="1.0" standalone="no"?>
<!DOCTYPE svg PUBLIC "-//W3C//DTD SVG 20010904//EN"
 "http://www.w3.org/TR/2001/REC-SVG-20010904/DTD/svg10.dtd">
<svg version="1.0" xmlns="http://www.w3.org/2000/svg"
 width="1352.000000pt" height="1352.000000pt" viewBox="0 0 1352.000000 1352.000000"
 preserveAspectRatio="xMidYMid meet">
<metadata>
Created by potrace 1.11, written by Peter Selinger 2001-2013
</metadata>
<g transform="translate(0.000000,1352.000000) scale(0.100000,-0.100000)"
fill="#000000" stroke="none">
<path d="M6108 10885 c-3 -3 -54 -7 -114 -10 -120 -5 -247 -14 -309 -21 -22
-3 -53 -7 -70 -8 -33 -4 -116 -15 -155 -22 -14 -2 -43 -7 -65 -10 -22 -4 -47
-10 -56 -15 -9 -4 -18 -6 -21 -4 -7 7 -200 -37 -333 -75 -60 -17 -114 -32
-120 -33 -5 -2 -16 -6 -22 -10 -7 -5 -21 -10 -32 -12 -39 -7 -261 -98 -353
-145 -150 -76 -353 -204 -409 -259 -9 -9 -33 -29 -54 -46 -75 -59 -285 -293
-285 -319 0 -3 -13 -25 -30 -49 -16 -25 -30 -48 -30 -53 0 -4 -6 -15 -13 -23
-13 -15 -56 -111 -62 -136 -1 -5 -5 -17 -9 -25 -3 -9 -8 -37 -10 -63 -6 -91
61 -128 122 -68 16 16 48 66 71 111 77 148 153 247 267 352 29 26 49 49 46 52
-3 3 -1 6 5 6 11 0 36 -27 143 -150 30 -35 64 -73 75 -85 39 -41 121 -141 159
-192 27 -38 34 -54 24 -58 -32 -11 -114 -22 -223 -29 -62 -5 -119 -11 -180
-21 -38 -6 -93 -33 -103 -51 -14 -25 4 -60 37 -73 45 -18 188 -29 588 -46 59
-2 91 -8 111 -21 31 -21 106 -96 177 -178 83 -96 265 -279 340 -340 102 -84
104 -86 114 -86 5 0 11 -4 13 -9 10 -27 254 -146 453 -220 30 -11 30 -12 33
-99 8 -261 16 -299 72 -331 37 -20 45 -35 41 -68 -1 -7 3 -13 8 -13 7 0 7 -8
2 -22 -5 -13 -4 -34 1 -47 15 -41 26 -101 18 -96 -15 9 -17 -20 -4 -60 7 -22
13 -33 13 -25 1 9 8 4 20 -13 10 -16 21 -28 25 -28 15 3 80 -31 97 -50 9 -11
20 -38 24 -60 6 -35 10 -39 28 -33 20 5 19 4 -3 -12 -14 -10 -27 -21 -30 -24
-3 -3 -23 -19 -45 -36 -22 -16 -45 -33 -51 -39 -6 -5 -55 -44 -109 -85 -53
-41 -108 -85 -121 -97 -13 -13 -27 -23 -33 -23 -5 0 -11 -3 -13 -8 -6 -15 -98
-84 -98 -74 0 6 -26 3 -67 -9 -38 -12 -88 -27 -113 -34 -25 -7 -101 -30 -170
-50 -69 -21 -137 -41 -152 -45 -14 -5 -29 -6 -32 -2 -3 3 -6 0 -6 -6 0 -7 -8
-12 -18 -12 -16 0 -84 -19 -132 -37 -8 -3 -20 -7 -26 -8 -14 -3 -203 -61 -269
-83 -27 -9 -54 -17 -60 -18 -5 -2 -19 -5 -30 -8 -11 -2 -39 -11 -62 -20 -24
-8 -43 -13 -43 -10 0 2 -13 -2 -30 -11 -16 -9 -30 -13 -30 -11 0 3 -26 -4 -57
-15 -32 -11 -65 -22 -74 -24 -9 -2 -47 -13 -85 -25 -38 -12 -76 -23 -84 -25
-8 -2 -85 -25 -170 -50 -85 -26 -177 -53 -205 -61 -27 -8 -57 -17 -65 -19 -30
-9 -186 -52 -212 -58 -23 -6 -27 -3 -37 25 -6 17 -11 49 -11 70 0 53 -22 92
-64 112 -46 21 -53 20 -60 -9 -4 -14 -11 -25 -17 -25 -6 0 -6 7 -1 18 4 9 7
37 6 62 -20 425 -24 459 -55 467 -10 3 -19 11 -19 19 0 7 -17 22 -38 34 -33
19 -72 67 -72 90 0 17 57 68 116 103 102 61 133 114 120 209 -7 51 -32 154
-45 183 -5 11 -26 63 -46 115 -21 52 -48 115 -59 140 -12 25 -28 65 -36 90 -7
25 -17 50 -21 55 -6 10 -57 167 -80 250 -23 82 -52 161 -66 183 -36 57 -159
78 -184 31 -25 -48 -38 -172 -54 -549 -5 -124 -6 -409 -1 -451 5 -37 32 -153
43 -179 17 -41 41 -170 32 -170 -4 0 -7 -14 -7 -30 1 -23 5 -30 16 -25 11 4
12 2 4 -7 -10 -13 -12 -18 -12 -38 0 -5 -7 -10 -15 -10 -8 0 -15 -4 -15 -10 0
-5 -10 -9 -22 -7 -39 4 -71 -74 -59 -147 0 -4 8 -5 17 -2 12 4 10 -1 -5 -23
-12 -16 -21 -34 -21 -40 0 -6 -4 -11 -8 -11 -9 0 -56 -89 -75 -145 -19 -54
-14 -175 11 -250 11 -33 18 -63 15 -67 -7 -13 -40 -9 -55 5 -7 7 -21 16 -32
20 -50 19 -165 109 -215 167 -73 86 -124 149 -134 166 -4 8 -18 25 -30 37 -27
28 -44 51 -77 97 -13 19 -31 41 -38 49 -8 8 -32 39 -55 70 -23 31 -44 58 -47
61 -3 3 -28 34 -55 70 -27 36 -54 68 -60 72 -5 4 -6 8 -1 8 6 0 3 6 -6 13 -9
6 -41 46 -72 87 -30 41 -59 80 -64 85 -5 6 -22 29 -38 51 -16 22 -35 46 -42
54 -7 8 -54 69 -103 135 -49 66 -96 128 -104 137 -7 9 -22 29 -32 45 -9 15
-20 30 -23 33 -8 7 -101 137 -123 173 -24 38 -16 46 96 100 149 73 532 215
623 232 10 2 21 4 24 6 3 1 10 3 15 4 6 1 17 5 25 8 8 3 26 8 40 11 14 3 61
14 105 26 44 11 89 22 100 24 11 3 21 5 23 7 4 3 22 6 43 8 19 1 20 5 15 49
-17 130 -30 194 -42 199 -11 4 -66 -6 -184 -32 -8 -1 -42 -10 -75 -19 -33 -9
-70 -19 -82 -22 -136 -28 -493 -156 -672 -240 -51 -24 -97 -44 -101 -44 -4 0
-13 -7 -20 -15 -7 -8 -21 -15 -30 -15 -10 0 -20 -4 -22 -8 -1 -4 -32 -23 -68
-41 -36 -19 -76 -42 -90 -51 -14 -9 -59 -39 -100 -66 -41 -27 -77 -51 -80 -54
-3 -3 -23 -18 -45 -35 -22 -16 -42 -31 -45 -35 -3 -3 -23 -18 -45 -35 -113
-83 -352 -351 -410 -458 -11 -20 -23 -37 -27 -37 -5 0 -8 -6 -8 -14 0 -8 -8
-22 -17 -32 -10 -10 -17 -19 -16 -21 2 -1 -9 -29 -23 -60 -43 -96 -88 -232
-100 -303 -17 -107 -21 -157 -19 -249 2 -114 12 -202 27 -240 5 -13 6 -26 4
-28 -3 -3 4 -27 15 -54 24 -62 24 -67 0 -38 -33 40 -34 15 -3 -65 17 -42 28
-76 26 -76 -3 0 33 -70 86 -166 12 -23 33 -54 46 -70 13 -15 24 -33 24 -39 0
-7 7 -15 15 -19 8 -3 15 -10 15 -16 0 -11 2 -14 86 -115 32 -38 67 -77 79 -85
11 -8 35 -29 53 -48 18 -18 53 -42 78 -52 25 -11 65 -33 89 -50 24 -16 48 -30
54 -30 6 0 11 -3 11 -7 0 -5 15 -17 33 -27 44 -26 363 -186 371 -186 3 0 30
-11 60 -25 62 -28 106 -47 121 -51 6 -1 27 -9 47 -18 21 -9 38 -13 38 -10 0 4
6 1 14 -5 8 -7 27 -14 43 -17 15 -3 44 -9 63 -13 45 -10 97 2 116 25 11 14 13
37 10 92 -3 39 -8 77 -11 82 -4 7 31 8 107 4 205 -13 368 -7 446 15 18 5 33
10 35 9 21 -3 151 46 284 108 87 41 142 61 161 58 6 -1 17 -2 22 -3 6 0 10 -7
10 -14 0 -7 9 -23 20 -35 l21 -22 -23 3 c-19 2 -22 -2 -20 -23 2 -14 7 -36 11
-50 5 -14 14 -44 22 -68 7 -24 15 -38 19 -31 4 6 11 -6 14 -26 15 -79 48 -166
72 -190 44 -44 162 -91 253 -99 49 -5 56 -3 80 22 14 15 42 38 61 49 35 22 89
73 77 73 -4 0 -2 11 3 26 6 14 12 44 15 67 9 72 35 160 62 212 41 79 43 81 96
80 27 0 51 3 53 7 3 4 15 3 28 -2 13 -5 26 -6 29 -3 3 3 68 7 144 9 76 2 201
6 278 9 77 3 217 8 311 11 254 8 311 11 323 18 8 5 11 -14 12 -61 1 -147 15
-209 62 -293 31 -55 203 -235 286 -301 24 -19 48 -38 55 -44 19 -17 146 -76
166 -78 28 -2 25 -17 -2 -18 -13 0 -32 -2 -43 -5 -22 -4 -86 -14 -125 -19
-134 -17 -149 -20 -197 -42 l-32 -15 4 -70 c2 -38 7 -73 10 -76 7 -8 11 -8
215 -17 287 -12 315 -13 379 -19 36 -4 98 -9 136 -11 39 -3 88 -8 110 -10 22
-3 63 -7 90 -10 28 -2 66 -6 85 -9 19 -2 62 -8 95 -11 33 -4 67 -9 76 -10 9
-2 40 -6 70 -10 30 -3 61 -8 69 -10 24 -6 123 -19 153 -19 15 -1 27 -3 27 -6
0 -3 15 -7 33 -8 17 -1 55 -6 82 -12 28 -5 70 -12 95 -16 25 -3 52 -8 60 -9 8
-2 24 -4 35 -4 15 -1 17 -3 6 -10 -16 -11 -9 -37 30 -103 16 -27 29 -52 29
-55 0 -14 113 -184 128 -192 13 -7 16 -38 18 -207 3 -218 4 -224 24 -249 32
-39 121 -65 149 -43 14 11 14 11 3 -3 -22 -29 -25 -97 -6 -147 9 -26 20 -49
23 -52 4 -3 14 -16 22 -30 15 -23 15 -28 0 -60 -9 -19 -19 -37 -22 -40 -3 -3
-8 -12 -11 -20 -3 -8 -27 -43 -52 -78 -58 -78 -95 -97 -296 -147 -188 -48
-175 -45 -249 -49 -76 -4 -188 21 -321 71 -8 3 -19 7 -25 9 -22 6 -143 53
-180 69 -22 10 -42 19 -45 20 -77 27 -438 211 -502 256 -14 11 -29 19 -33 19
-8 0 -211 137 -244 165 -13 11 -48 43 -77 71 -50 47 -64 53 -106 45 -8 -1 -30
-67 -33 -96 -1 -11 3 -29 9 -40 8 -18 8 -19 -8 -6 -23 19 -30 8 -30 -43 1 -60
36 -108 146 -201 12 -11 36 -31 52 -45 28 -23 28 -23 17 -2 -6 12 -16 22 -20
22 -5 0 -11 7 -15 15 -3 8 28 -11 68 -43 41 -31 84 -64 96 -72 12 -8 33 -23
45 -33 13 -9 28 -17 34 -17 6 0 11 -3 11 -7 0 -5 24 -21 53 -37 28 -16 54 -32
57 -35 15 -18 419 -220 450 -226 3 0 31 -11 63 -23 89 -34 148 -66 201 -110
50 -42 72 -48 196 -57 36 -3 90 -8 120 -11 30 -3 69 -7 85 -9 26 -3 99 -15
175 -30 13 -3 42 -8 65 -11 22 -4 49 -8 60 -10 42 -7 101 -15 135 -19 19 -2
44 -6 55 -9 130 -28 796 -29 1040 -2 17 2 58 7 93 11 35 3 71 8 80 10 9 1 42
6 72 10 30 4 64 9 75 12 11 2 31 6 45 8 22 4 89 17 146 29 12 2 38 7 59 10 20
4 41 9 46 12 5 3 19 7 31 9 36 7 180 46 213 58 17 6 35 12 40 13 17 3 168 54
200 68 38 17 98 41 105 42 17 3 114 47 230 107 182 93 194 100 200 106 3 4 36
27 74 51 88 57 280 201 337 252 10 10 21 18 24 18 11 0 195 181 195 192 0 6
10 24 23 41 12 18 27 41 33 52 6 11 37 61 68 110 32 50 72 122 90 160 30 63
84 207 91 245 2 8 4 15 5 15 1 0 3 9 5 20 2 11 6 31 9 45 16 69 23 116 32 195
3 33 8 74 9 90 2 17 5 65 6 107 1 63 -3 84 -22 117 -26 48 -40 54 -68 35 -19
-14 -48 -92 -57 -152 -4 -36 -16 -123 -18 -142 -1 -9 -5 -21 -10 -28 -4 -6 -5
-12 -3 -12 3 0 -4 -30 -15 -68 -10 -37 -20 -74 -22 -83 -26 -107 -152 -345
-253 -478 -48 -64 -143 -149 -175 -157 -48 -11 -47 -11 -55 -14 -5 -2 -12 -4
-18 -5 -5 -2 -12 -4 -15 -5 -11 -4 -47 -11 -75 -14 -17 -2 -49 -9 -70 -15 -22
-6 -58 -13 -80 -16 -22 -4 -51 -8 -65 -11 -118 -22 -241 -44 -270 -49 -19 -3
-48 -8 -63 -11 -16 -3 -38 -7 -50 -8 -12 -2 -35 -6 -52 -9 -16 -4 -43 -9 -60
-12 -16 -3 -41 -7 -55 -10 -14 -3 -43 -8 -65 -10 -22 -3 -62 -9 -90 -15 -27
-5 -70 -12 -95 -15 -25 -3 -56 -7 -70 -10 -145 -24 -286 -22 -391 6 -35 9
-225 85 -320 127 -24 11 -68 30 -96 43 -29 12 -53 27 -54 33 -1 6 -2 137 -3
291 -2 248 -4 283 -19 306 -22 33 -66 52 -99 44 -25 -6 -25 -6 -18 33 4 22 8
110 9 195 2 153 2 155 -18 150 -12 -3 -21 -9 -21 -14 0 -5 -5 -9 -10 -9 -6 0
-3 11 6 25 28 43 24 130 -7 130 -8 0 -13 8 -11 18 2 9 -2 26 -8 37 -10 18 -8
20 22 21 18 1 47 3 63 4 17 1 93 6 170 10 250 13 396 22 455 30 19 2 73 7 120
11 127 10 145 12 145 13 0 1 25 4 55 6 30 3 69 7 85 9 33 5 120 15 175 21 93
9 158 17 185 21 17 3 53 7 80 10 28 2 68 6 90 9 22 2 58 6 80 9 22 2 63 7 90
10 28 3 75 8 105 11 30 3 73 8 95 11 22 2 62 6 90 9 27 2 72 7 100 11 27 3 61
8 75 9 82 8 100 20 106 75 5 37 -7 49 -56 56 -68 9 -223 11 -242 1 -10 -4 -18
-4 -18 0 0 4 -21 7 -47 6 -27 -1 -48 -2 -48 -3 0 -1 -56 -3 -125 -5 -118 -3
-382 -12 -625 -20 -182 -6 -376 -15 -445 -20 -145 -11 -216 -16 -240 -20 -14
-2 -55 -6 -92 -10 -37 -3 -75 -7 -85 -9 -10 -2 -38 -7 -63 -11 -25 -4 -53 -9
-62 -11 -51 -11 -61 -14 -76 -18 -9 -3 -28 -7 -42 -10 -14 -2 -37 -9 -52 -15
-16 -6 -28 -8 -28 -6 0 2 -12 0 -27 -6 -78 -31 -82 -30 -98 8 -20 47 -49 75
-112 106 -60 31 -92 71 -99 124 -19 155 -18 159 18 184 18 13 40 31 48 39 18
17 70 62 150 130 29 25 65 56 80 70 47 43 142 124 164 140 19 13 20 13 7 -3
-22 -28 1 -19 26 9 12 15 20 31 17 35 -3 5 0 9 7 9 6 0 26 16 44 35 l33 34
584 -5 c581 -4 747 -7 1118 -19 202 -6 259 -10 322 -19 47 -8 88 -23 88 -34 0
-4 9 -18 20 -29 10 -12 22 -43 26 -70 3 -26 8 -57 10 -68 2 -11 6 -32 9 -47
13 -71 69 -139 145 -178 82 -41 287 9 334 82 13 21 39 93 81 228 9 30 19 62
21 70 2 8 8 32 13 53 8 33 36 87 45 87 21 0 229 -93 246 -110 3 -3 10 -6 15
-7 6 -1 62 -20 125 -42 63 -22 133 -42 155 -46 23 -3 52 -8 65 -10 35 -8 131
-7 219 0 l74 7 -6 -58 c-5 -53 -3 -59 24 -86 27 -28 31 -29 95 -23 37 3 75 10
86 16 10 5 18 7 18 5 0 -3 18 1 40 9 22 8 44 14 48 14 14 0 217 74 227 82 5 5
15 9 22 9 43 0 579 272 643 326 40 34 119 115 155 158 22 26 48 57 58 67 9 11
17 23 17 28 0 5 4 11 8 13 38 15 200 299 216 378 2 8 6 22 9 30 10 29 37 155
42 200 2 25 7 56 10 70 19 81 3 336 -26 428 -6 18 -12 39 -13 45 -5 21 -17 51
-32 80 -8 15 -13 27 -9 27 5 0 -101 212 -128 255 -73 118 -334 386 -482 496
-33 24 -62 46 -65 50 -20 23 -232 153 -327 201 -37 19 -79 41 -93 48 -14 8
-29 15 -35 16 -5 1 -44 18 -85 37 -41 19 -88 39 -105 45 -16 6 -43 17 -60 23
-16 7 -33 13 -37 14 -5 2 -9 3 -10 5 -2 1 -10 3 -18 5 -8 2 -39 13 -67 24 -29
12 -53 18 -53 15 0 -4 -7 -1 -15 6 -8 7 -15 10 -15 6 0 -4 -13 0 -30 9 -16 8
-32 15 -35 15 -3 0 -6 0 -7 1 -2 0 -13 2 -25 5 -12 2 -41 10 -65 19 -24 8 -52
15 -64 15 -11 0 -24 3 -28 7 -3 4 -17 8 -29 10 -12 1 -40 7 -62 12 -99 24
-121 4 -131 -118 -7 -89 6 -108 86 -126 14 -4 150 -45 215 -66 17 -6 37 -12
45 -14 27 -6 305 -105 355 -126 11 -4 67 -27 125 -50 58 -23 116 -49 129 -58
13 -8 30 -16 37 -17 28 -4 81 -57 77 -75 -3 -11 -9 -19 -14 -19 -5 0 -9 -4 -9
-8 0 -5 -13 -24 -29 -43 -16 -19 -76 -92 -132 -164 -57 -71 -106 -132 -109
-135 -3 -3 -50 -61 -105 -130 -55 -69 -102 -127 -105 -130 -3 -3 -24 -27 -45
-55 -22 -27 -42 -52 -45 -55 -5 -4 -165 -199 -208 -252 -9 -11 -24 -28 -32
-37 -8 -10 -37 -44 -65 -76 -27 -33 -54 -65 -60 -71 -5 -6 -37 -42 -70 -80
-135 -156 -284 -291 -300 -272 -14 17 -38 81 -60 163 -32 116 -84 265 -111
315 -10 19 -19 37 -19 40 -2 14 -44 84 -95 160 -31 47 -59 93 -63 102 -4 11
11 35 44 73 27 31 50 63 50 71 4 48 4 63 -4 104 -11 55 -71 183 -126 268 -23
34 -41 67 -41 72 0 6 -4 10 -10 10 -5 0 -10 7 -10 15 0 8 -4 15 -10 15 -5 0
-10 7 -10 15 0 8 -3 15 -7 15 -5 0 -24 27 -43 60 -19 33 -38 60 -42 60 -5 0
-8 4 -8 10 0 5 -15 33 -33 62 -36 56 -74 121 -117 203 -84 156 -125 219 -157
240 -32 21 -134 29 -157 12 -24 -18 -28 -55 -10 -111 18 -58 41 -137 54 -181
23 -84 49 -183 54 -205 3 -14 14 -57 25 -95 11 -39 22 -81 25 -95 25 -122 140
-417 168 -428 4 -2 8 -8 8 -12 0 -5 18 -37 40 -71 22 -34 42 -77 46 -95 8 -43
-10 -87 -42 -104 -13 -8 -24 -17 -24 -22 0 -4 -7 -8 -17 -8 -9 0 -14 -3 -10
-6 3 -3 -5 -16 -18 -28 -24 -23 -41 -76 -24 -76 5 0 9 -4 9 -10 0 -5 -6 -7
-14 -4 -26 10 -37 -76 -40 -308 -1 -140 -2 -147 -18 -126 -14 19 -21 21 -44
13 -35 -13 -54 -47 -54 -101 0 -68 -26 -74 -129 -27 -18 8 -39 16 -45 18 -6 1
-22 7 -36 12 -14 6 -135 54 -270 108 -135 53 -258 102 -275 110 -38 16 -703
280 -729 289 -14 5 -31 -4 -63 -36 -24 -23 -43 -39 -43 -35 0 5 11 18 23 30
13 12 32 34 41 49 21 33 10 54 -43 85 -40 23 -156 73 -180 78 -9 2 -43 10 -76
19 -34 8 -85 18 -114 21 -89 9 -142 24 -231 67 -47 23 -88 43 -92 44 -5 1 -11
3 -15 4 -5 1 -11 2 -15 1 -5 0 -8 4 -8 11 0 6 -3 8 -7 5 -3 -4 -12 -2 -20 4
-7 6 -13 8 -13 3 0 -5 -4 -3 -9 4 -4 7 -14 14 -22 16 -8 1 -32 10 -54 20 -22
10 -51 18 -64 18 -30 1 -113 37 -107 47 3 4 -11 15 -29 25 -25 14 -38 16 -48
8 -16 -13 -35 -3 -51 29 -7 13 -18 23 -24 21 -22 -4 -12 9 14 19 l27 10 -39
34 c-21 19 -45 35 -51 35 -7 0 -13 5 -13 12 0 6 -3 9 -6 5 -4 -3 -20 1 -37 9
-17 9 -53 24 -82 34 l-51 18 -41 -28 -41 -28 -5 26 c-6 30 -54 62 -226 148
l-105 53 -2 94 c-1 101 -16 145 -61 181 -38 29 -63 58 -63 73 0 7 11 37 25 68
13 30 24 58 24 62 -1 3 3 9 8 12 8 6 113 216 113 226 0 2 11 28 24 57 13 29
44 107 69 173 60 158 83 211 96 219 5 4 35 8 65 11 30 2 72 6 93 9 47 6 121
14 193 21 30 3 73 7 95 10 22 2 67 7 100 10 33 3 80 8 105 10 25 3 74 7 110
10 114 9 266 23 335 31 22 3 69 7 105 9 36 2 65 5 65 5 0 1 14 3 30 4 122 11
146 20 159 61 11 39 -7 49 -91 46 -82 -2 -188 -9 -188 -11 0 -1 -95 -7 -265
-14 -63 -3 -158 -8 -210 -11 -300 -16 -630 -26 -640 -20 -6 4 40 159 67 225 3
8 7 20 8 25 2 6 13 37 25 70 12 33 33 92 47 130 33 91 102 263 119 297 33 64
53 68 179 29 137 -43 269 -98 485 -204 80 -40 147 -72 150 -73 3 0 23 -9 45
-19 87 -39 136 -20 140 52 5 90 -28 133 -160 213 -82 49 -208 115 -280 145
-102 43 -336 124 -405 140 -8 2 -44 11 -80 20 -74 19 -228 52 -280 60 -19 3
-48 9 -65 12 -16 4 -39 8 -50 9 -11 1 -42 5 -70 9 -61 8 -90 11 -175 20 -36 3
-83 8 -105 11 -22 2 -102 6 -178 9 -77 3 -143 8 -148 11 -5 3 -9 1 -9 -5 0 -7
-8 -7 -23 -2 -13 5 -30 5 -38 1 -8 -5 -21 -5 -28 0 -8 4 -26 4 -41 0 -16 -5
-32 -4 -37 1 -5 5 -12 7 -15 4z m87 -250 c17 0 36 4 43 8 6 5 12 5 12 0 0 -4
65 -8 145 -8 80 0 145 -2 145 -5 0 -3 39 -6 88 -7 48 -1 112 -4 142 -7 30 -3
75 -8 100 -10 128 -13 159 -18 217 -35 45 -12 47 -22 22 -88 -6 -16 -11 -30
-11 -33 -1 -8 -21 -72 -34 -105 -4 -11 -8 -24 -9 -30 -3 -12 -122 -340 -160
-440 -15 -38 -36 -100 -48 -137 l-22 -66 -45 -8 c-25 -3 -54 -8 -65 -10 -11
-1 -54 -7 -95 -14 -131 -19 -144 -21 -199 -26 -77 -8 -96 -1 -97 35 -2 43 -33
78 -83 96 -44 15 -46 15 -85 -12 -23 -14 -46 -34 -53 -43 -17 -24 -84 -40
-173 -43 -41 -2 -80 -6 -87 -10 -6 -4 -14 -4 -16 0 -3 5 -22 7 -44 6 -21 -1
-99 -4 -173 -7 -74 -3 -155 -8 -180 -11 -25 -3 -74 -7 -110 -10 -89 -7 -151
-13 -175 -18 -11 -3 -47 -8 -80 -12 -32 -3 -62 -8 -65 -10 -4 -3 -71 -11 -155
-20 -16 -2 -42 3 -57 11 -52 27 -419 405 -479 494 -33 49 -30 87 8 117 22 18
199 111 223 118 3 1 37 16 75 34 124 58 396 158 480 177 6 1 48 11 95 22 47
12 100 24 119 27 19 3 37 7 40 9 3 2 31 7 61 11 30 4 57 8 60 10 3 1 30 6 61
9 31 4 67 9 80 11 13 3 55 7 94 10 38 3 97 7 130 10 33 4 115 8 183 9 68 2
126 6 129 10 4 3 9 3 12 -1 3 -5 20 -8 36 -8z m278 -1117 c23 8 197 6 232 -2
11 -2 24 -5 28 -5 9 -1 1 -66 -9 -83 -3 -5 -8 -24 -11 -41 -3 -18 -9 -37 -14
-43 -5 -6 -10 -19 -12 -30 -2 -10 -8 -28 -12 -39 -21 -52 -47 -121 -50 -130
-12 -51 -69 -159 -119 -225 -23 -30 -47 -63 -54 -75 -13 -22 -13 -28 3 85 6
46 18 234 18 285 -1 81 -3 96 -13 90 -6 -4 -10 10 -10 34 0 35 -6 46 -57 95
-63 61 -63 79 2 81 19 1 39 5 42 9 4 4 9 3 11 -3 2 -6 13 -7 25 -3z m-522
-251 c-9 -23 -7 -300 2 -342 2 -11 7 -38 11 -60 6 -35 5 -38 -7 -22 -8 9 -19
17 -25 17 -27 0 -89 -103 -97 -160 -1 -14 -3 -29 -4 -33 -1 -9 -26 -3 -81 18
-167 65 -232 96 -284 133 -79 57 -386 370 -386 393 0 4 8 6 18 4 9 -2 51 -7
92 -10 41 -3 89 -8 105 -10 265 -34 419 -19 561 54 94 47 107 50 95 18z m6703
-942 c14 -13 26 -22 26 -19 0 9 111 -97 252 -240 71 -71 128 -133 128 -137 0
-4 10 -19 23 -32 12 -13 28 -34 36 -48 57 -97 78 -138 73 -143 -3 -3 0 -6 6
-6 7 0 12 -9 12 -20 0 -11 4 -20 9 -20 5 0 11 -10 14 -22 3 -13 16 -55 30 -94
14 -39 28 -88 31 -109 4 -20 9 -41 11 -45 10 -16 12 -191 3 -237 -5 -27 -11
-59 -14 -73 -11 -57 -108 -237 -156 -291 -10 -10 -18 -21 -18 -24 0 -9 -54
-69 -132 -146 -76 -75 -212 -176 -246 -183 -9 -1 -24 -6 -32 -9 -34 -14 -299
-72 -375 -83 -16 -2 -41 -6 -55 -9 -14 -3 -36 -8 -50 -10 -26 -4 -53 -9 -135
-25 -27 -5 -66 -12 -85 -15 -19 -3 -48 -8 -65 -12 -16 -4 -37 -7 -45 -8 -8 -1
-28 -4 -45 -8 -16 -3 -48 -9 -70 -12 -23 -3 -52 -8 -65 -11 -14 -2 -38 -6 -55
-8 -16 -2 -57 -8 -90 -12 -101 -14 -247 -9 -283 10 -34 18 -73 65 -90 111 -19
48 -102 327 -102 341 0 15 52 61 106 94 21 13 57 40 79 60 58 51 224 221 270
276 22 26 47 55 56 63 8 9 37 43 65 76 27 33 51 62 54 65 3 3 25 30 50 60 25
30 47 57 50 60 3 3 29 34 58 70 89 111 107 132 120 145 6 8 12 17 12 21 0 4 6
12 14 18 7 6 50 58 96 115 45 57 87 110 93 117 7 7 23 27 37 45 110 145 296
356 330 375 33 18 33 18 64 -11z m-5830 -249 c40 -18 70 -26 93 -23 18 3 30 1
27 -4 -3 -5 -9 -9 -14 -9 -4 0 -39 -20 -76 -45 -65 -43 -69 -44 -88 -27 -56
47 -104 91 -139 127 -34 34 -36 40 -20 46 20 7 130 -26 217 -65z m-5616 -248
c76 -97 144 -186 152 -198 8 -12 20 -28 25 -34 6 -6 42 -54 80 -106 38 -52 74
-100 80 -106 5 -6 17 -22 25 -34 8 -13 39 -54 68 -91 28 -38 52 -73 52 -78 0
-5 4 -11 8 -13 4 -1 66 -79 136 -172 70 -93 133 -174 139 -181 7 -7 21 -25 31
-39 81 -112 251 -287 336 -346 19 -13 37 -27 40 -30 3 -3 60 -41 127 -85 131
-85 134 -89 148 -185 4 -25 8 -52 11 -61 3 -12 -17 -26 -78 -54 -46 -21 -85
-39 -88 -40 -3 -1 -27 -12 -55 -25 -27 -13 -52 -24 -55 -25 -3 -1 -12 -5 -20
-8 -17 -7 -73 -28 -80 -30 -3 0 -38 -13 -78 -28 -65 -24 -84 -27 -175 -24 -56
2 -118 6 -137 9 -19 4 -80 14 -135 22 -55 9 -109 18 -120 21 -11 2 -31 6 -45
8 -14 2 -50 9 -80 15 -58 12 -76 15 -125 24 -16 3 -39 7 -50 10 -59 12 -174
36 -205 41 -19 3 -43 8 -53 11 -11 3 -29 8 -40 9 -63 10 -86 15 -132 25 -51
12 -131 27 -195 37 -55 8 -79 25 -175 125 -144 148 -193 214 -274 368 -30 59
-70 166 -79 215 -11 61 -4 225 10 225 4 0 5 6 2 14 -16 41 135 436 166 436 6
0 10 5 10 11 0 12 116 154 188 229 141 149 207 211 287 275 28 22 52 43 55 47
3 3 28 18 55 32 l50 26 28 -33 c16 -17 90 -111 165 -209z m5420 55 c15 -15 33
-17 48 -5 5 4 -2 -3 -16 -16 -14 -12 -32 -29 -41 -37 -9 -8 -21 -15 -27 -15
-5 0 -12 -3 -14 -8 -1 -4 -23 -23 -48 -42 -25 -19 -54 -43 -64 -52 -11 -10
-25 -18 -30 -18 -7 0 -7 3 0 8 6 4 18 21 27 37 14 29 18 47 32 140 3 22 11 52
17 68 l11 27 46 -37 c25 -21 52 -43 59 -50z m2597 -885 c133 -49 536 -209 603
-240 34 -15 65 -28 67 -28 12 0 181 -85 187 -94 13 -19 -5 -28 -46 -22 -22 4
-111 23 -196 43 -85 19 -164 36 -175 37 -11 2 -30 6 -42 10 -12 4 -30 9 -40
11 -10 2 -94 22 -188 45 -93 23 -177 43 -185 45 -8 2 -62 15 -120 30 -58 15
-113 29 -122 31 -10 2 -26 6 -35 8 -33 8 -71 25 -77 35 -21 33 77 140 139 153
23 4 114 -21 230 -64z m-3955 -232 c0 -2 -55 -48 -122 -102 -68 -54 -125 -101
-128 -104 -3 -3 -37 -31 -76 -62 -38 -31 -89 -78 -112 -103 -23 -26 -42 -42
-42 -36 0 5 5 13 10 16 6 3 10 12 10 19 0 10 -12 10 -62 -1 -35 -8 -76 -16
-91 -18 -15 -2 -45 -7 -65 -10 -21 -3 -47 -7 -57 -9 -11 -2 -42 -7 -68 -10
-27 -4 -59 -9 -70 -12 -12 -2 -40 -6 -62 -9 -22 -2 -49 -6 -60 -8 -11 -3 -42
-8 -70 -12 -27 -5 -57 -9 -65 -11 -8 -1 -33 -5 -55 -7 -22 -3 -53 -8 -70 -11
-63 -10 -111 -18 -140 -22 -16 -2 -39 -5 -51 -8 -105 -22 -174 -10 -81 15 23
6 54 17 69 25 15 8 35 16 45 17 10 2 26 7 35 11 9 4 22 8 30 10 7 1 18 4 23 7
8 5 39 15 75 24 3 0 66 20 140 43 242 77 368 115 385 118 6 0 17 4 25 7 14 6
247 74 280 82 8 2 15 4 15 5 0 1 7 3 15 5 8 2 59 15 114 29 54 14 106 26 115
26 10 0 49 22 87 49 75 53 74 53 74 47z m-1971 -178 c0 -31 -1 -31 -10 -10 -5
13 -7 28 -3 33 10 16 14 9 13 -23z m5526 -43 c28 -2 75 -7 105 -10 30 -2 69
-7 85 -9 17 -3 50 -8 75 -11 25 -3 63 -7 85 -10 22 -3 67 -8 100 -11 58 -6 90
-11 90 -14 0 0 32 -3 70 -5 39 -3 81 -7 94 -10 23 -4 87 -12 166 -20 22 -2 40
-4 40 -5 0 -1 18 -3 40 -5 22 -3 67 -9 100 -15 33 -6 71 -13 85 -14 34 -5 60
-16 60 -27 0 -5 -9 -18 -20 -29 -20 -20 -29 -21 -173 -15 -155 5 -407 13 -669
19 -81 3 -152 7 -158 11 -5 3 -10 1 -10 -5 0 -6 -4 -9 -10 -5 -5 3 -65 8 -132
10 -134 5 -353 15 -407 19 -19 1 -36 7 -38 12 -6 18 113 137 148 150 32 11
155 11 274 -1z m-4128 -397 c-3 -7 -5 -2 -5 12 0 14 2 19 5 13 2 -7 2 -19 0
-25z m-238 -72 c52 -50 39 -64 -61 -71 -29 -2 -91 -6 -138 -10 -159 -11 -215
-14 -445 -21 -126 -3 -227 -3 -224 0 6 6 158 40 233 52 37 5 48 7 106 18 14 3
41 8 60 10 19 3 46 8 59 11 14 2 47 7 74 10 28 3 53 8 57 10 4 2 31 7 61 10
29 4 55 8 57 9 1 2 31 3 67 2 56 -1 67 -4 94 -30z m2771 -777 c18 -32 20 -62
7 -80 -15 -19 -43 -30 -52 -21 -4 4 -10 7 -13 7 -23 2 -62 17 -62 24 0 5 10
16 23 24 12 9 35 27 51 41 35 31 33 31 46 5z m2 -516 c-31 -44 -38 -89 -36
-223 2 -128 9 -194 24 -242 6 -17 5 -28 -1 -28 -5 0 -9 5 -9 10 0 6 -11 15
-25 22 -22 10 -73 74 -71 89 1 4 -6 15 -15 25 -9 11 -37 58 -62 105 l-47 87
25 16 c13 9 29 16 35 16 5 0 10 5 10 10 0 6 5 10 10 10 15 0 72 41 145 104 38
32 41 32 17 -1z m-339 -195 c13 -14 18 -58 6 -58 -3 0 -9 8 -12 18 -2 9 -8 25
-12 35 -8 20 1 23 18 5z m1065 -1098 c33 -11 91 -34 129 -51 113 -51 126 -57
168 -73 116 -44 240 -73 349 -81 32 -3 61 -7 64 -10 3 -3 11 0 18 6 8 6 14 6
18 0 4 -6 18 -6 36 -1 19 5 30 5 30 -1 0 -6 4 -8 9 -4 5 3 31 8 58 10 46 5 66
8 151 21 20 3 87 14 147 26 61 11 120 20 133 20 12 0 22 3 22 7 0 3 21 7 48 9
26 2 54 4 62 5 8 1 17 -2 19 -8 4 -9 -145 -95 -159 -93 -3 1 -18 -5 -35 -12
-51 -22 -187 -71 -252 -91 -110 -33 -197 -59 -218 -64 -11 -2 -75 -18 -142
-34 -67 -17 -139 -34 -160 -37 -47 -8 -68 -12 -68 -14 0 -1 -12 -3 -28 -5 -15
-2 -62 -9 -104 -15 -76 -12 -102 -15 -193 -25 -25 -2 -63 -7 -85 -9 -147 -18
-251 -23 -260 -14 -1 2 17 80 41 173 24 94 46 179 49 190 25 109 49 174 69
187 15 10 15 10 84 -12z m-713 -300 c3 -6 -1 -7 -9 -4 -18 7 -21 14 -7 14 6 0
13 -4 16 -10z m-71 -79 c-7 -31 29 -121 47 -121 5 0 9 -4 9 -10 0 -11 -80 -13
-129 -4 -17 4 -31 12 -31 19 0 13 97 143 107 145 1 0 0 -13 -3 -29z"/>
<path d="M7873 5966 c-6 -8 -9 -17 -6 -20 7 -7 33 13 33 25 0 13 -13 10 -27
-5z"/>
</g>
</svg>
