<?xml version="1.0" standalone="no"?>
<!DOCTYPE svg PUBLIC "-//W3C//DTD SVG 20010904//EN"
 "http://www.w3.org/TR/2001/REC-SVG-20010904/DTD/svg10.dtd">
<svg version="1.0" xmlns="http://www.w3.org/2000/svg"
 width="700.000000pt" height="700.000000pt" viewBox="0 0 700.000000 700.000000"
 preserveAspectRatio="xMidYMid meet">
<metadata>
Created by potrace 1.11, written by Peter Selinger 2001-2013
</metadata>
<g transform="translate(0.000000,700.000000) scale(0.100000,-0.100000)"
fill="#000000" stroke="none">
<path d="M3218 6995 c-2 -2 -48 -6 -103 -9 -55 -3 -113 -8 -130 -11 -130 -22
-177 -31 -305 -62 -326 -78 -639 -201 -925 -363 -82 -47 -269 -171 -273 -181
-2 -5 -8 -9 -13 -9 -8 0 -172 -123 -205 -154 -7 -6 -42 -36 -78 -66 -165 -137
-415 -416 -559 -622 -165 -238 -276 -448 -408 -773 -13 -33 -51 -139 -53 -150
-2 -5 -12 -42 -24 -81 -21 -68 -65 -239 -76 -294 -2 -14 -10 -50 -16 -80 -6
-30 -13 -73 -16 -95 -3 -22 -7 -46 -9 -52 -19 -57 -28 -725 -13 -883 8 -79 38
-261 58 -345 6 -27 13 -58 15 -68 10 -48 72 -255 106 -353 100 -292 264 -610
441 -859 373 -522 872 -931 1453 -1190 180 -80 489 -182 640 -211 11 -2 40 -8
65 -14 54 -12 147 -27 215 -36 28 -3 82 -12 120 -19 85 -16 664 -14 765 3 36
6 84 13 108 16 23 4 61 9 85 12 64 8 249 51 372 85 124 35 355 116 370 130 5
5 15 9 23 9 21 0 285 130 403 197 89 52 179 110 309 200 160 111 461 387 601
553 109 129 319 415 319 435 0 4 8 19 19 33 49 71 155 278 219 427 125 293
235 688 257 925 2 19 7 73 12 120 19 199 7 696 -22 890 -70 468 -277 993 -558
1415 -57 85 -155 217 -208 280 -110 129 -341 360 -449 448 -41 34 -77 64 -80
67 -9 11 -213 154 -280 197 -430 273 -918 452 -1445 529 -34 5 -722 13 -727 9z
m989 -1654 c83 -42 137 -124 135 -206 -1 -42 -53 -223 -90 -315 -6 -14 -38
-101 -72 -195 -34 -93 -74 -204 -90 -245 -31 -79 -227 -606 -286 -770 -19 -52
-39 -105 -44 -118 -6 -13 -35 -92 -66 -175 -30 -84 -60 -163 -66 -177 -5 -14
-27 -72 -49 -130 -49 -135 -135 -368 -239 -645 -46 -121 -95 -254 -110 -295
-70 -191 -125 -273 -202 -296 -61 -19 -144 -17 -190 4 -97 44 -155 136 -144
231 10 99 25 144 169 531 53 140 125 334 160 430 36 96 154 414 262 705 236
632 259 696 314 845 23 63 48 131 56 150 8 19 41 107 74 195 154 414 175 451
278 490 52 20 147 13 200 -14z m648 -581 c26 -10 137 -113 424 -395 278 -274
210 -206 481 -482 124 -126 244 -250 268 -276 l43 -47 -73 -77 c-103 -110
-831 -837 -966 -966 -62 -59 -128 -115 -145 -124 -21 -11 -56 -17 -102 -17
-59 0 -79 4 -123 29 -59 32 -103 87 -121 150 -25 91 -7 152 76 250 79 94 97
113 396 415 155 157 295 300 310 317 l29 31 -69 72 c-65 69 -126 132 -534 548
-97 99 -189 200 -203 225 -78 133 4 311 163 353 45 12 106 9 146 -6z m-2500
-4 c97 -41 158 -131 156 -231 -1 -114 -5 -118 -485 -605 -270 -274 -336 -345
-336 -359 0 -13 111 -131 397 -421 263 -267 359 -369 385 -408 24 -36 31 -106
17 -165 -27 -115 -119 -189 -240 -194 -60 -2 -72 1 -114 29 -57 38 -262 237
-705 683 -349 351 -460 466 -460 476 0 12 199 218 556 574 430 430 614 605
652 622 38 17 136 16 177 -1z"/>
</g>
</svg>
