<?xml version="1.0" encoding="UTF-8" standalone="no"?>
<svg
   xmlns:dc="http://purl.org/dc/elements/1.1/"
   xmlns:cc="http://creativecommons.org/ns#"
   xmlns:rdf="http://www.w3.org/1999/02/22-rdf-syntax-ns#"
   xmlns:svg="http://www.w3.org/2000/svg"
   xmlns="http://www.w3.org/2000/svg"
   xmlns:sodipodi="http://sodipodi.sourceforge.net/DTD/sodipodi-0.dtd"
   xmlns:inkscape="http://www.inkscape.org/namespaces/inkscape"
   sodipodi:docname="drawing.svg"
   inkscape:version="1.0 (4035a4fb49, 2020-05-01)"
   id="svg8"
   version="1.1"
   viewBox="0 0 44.704006 27.431999"
   height="27.431999mm"
   width="44.704006mm">
  <defs
     id="defs2" />
  <sodipodi:namedview
     inkscape:window-maximized="1"
     inkscape:window-y="892"
     inkscape:window-x="78"
     inkscape:window-height="1057"
     inkscape:window-width="1920"
     showgrid="false"
     inkscape:document-rotation="0"
     inkscape:current-layer="layer1"
     inkscape:document-units="mm"
     inkscape:cy="36.522131"
     inkscape:cx="83.149165"
     inkscape:zoom="3.959798"
     inkscape:pageshadow="2"
     inkscape:pageopacity="0.0"
     borderopacity="1.0"
     bordercolor="#666666"
     pagecolor="#ffffff"
     id="base" />
  <metadata
     id="metadata5">
    <rdf:RDF>
      <cc:Work
         rdf:about="">
        <dc:format>image/svg+xml</dc:format>
        <dc:type
           rdf:resource="http://purl.org/dc/dcmitype/StillImage" />
        <dc:title></dc:title>
      </cc:Work>
    </rdf:RDF>
  </metadata>
  <g
     transform="translate(-116.69497,-112.30158)"
     id="layer1"
     inkscape:groupmode="layer"
     inkscape:label="Layer 1">
    <g
       transform="translate(44.834463,5.8131122)"
       id="g1017">
      <path
         id="path1023"
         d="m 95.654817,132.57137 c -0.121903,-0.22778 -0.109468,-0.39006 0.03936,-0.51357 0.108153,-0.0898 0.127,-0.0672 0.127,0.15204 0,0.1416 0.02313,0.31771 0.05139,0.39137 0.0735,0.19155 -0.112937,0.166 -0.217747,-0.0298 z m -7.347812,-1.51432 c -0.264929,-0.2328 -0.359834,-0.37973 -0.359834,-0.55709 0,-0.20453 0.01917,-0.22498 0.127,-0.13549 0.06985,0.058 0.127,0.18465 0.127,0.2815 0,0.0969 0.121775,0.30174 0.270609,0.4553 0.357474,0.36882 0.282308,0.34865 -0.164775,-0.0442 z m 6.881627,-0.26449 c -0.09627,-0.18616 -0.107532,-0.30541 -0.04451,-0.47118 0.04641,-0.12206 0.08438,-0.43535 0.08438,-0.6962 0,-0.26085 0.02274,-0.45152 0.05054,-0.42372 0.06233,0.0623 0.140946,1.84034 0.08137,1.84034 -0.02359,0 -0.100894,-0.11216 -0.171783,-0.24924 z m 1.296597,-2.81992 -0.01328,-0.9525 -0.05526,0.86581 c -0.03039,0.4762 -0.0787,0.88925 -0.107342,0.9179 -0.02865,0.0286 -0.134632,0.0259 -0.235526,-0.006 -0.273566,-0.0868 -0.421985,-0.54172 -0.421985,-1.29335 0,-0.62749 0.01404,-0.67766 0.254,-0.90756 l 0.254,-0.24334 v 0.31217 0.31217 l 0.486834,-3.4e-4 c 0.335863,-2.5e-4 0.572164,-0.0523 0.762,-0.16808 l 0.275166,-0.16778 v 0.54492 c 0,0.845 -0.140757,1.36805 -0.422057,1.56835 -0.131496,0.0936 -0.357026,0.17024 -0.501179,0.17024 l -0.262097,3e-5 z m -2.30777,0.0709 c -0.337804,-0.60405 -0.349518,-0.64241 -0.196163,-0.64241 0.107562,0 0.654542,0.91108 0.654542,1.09024 0,0.22841 -0.176797,0.0557 -0.458379,-0.44783 z m 0.680629,-0.145 c -0.131262,-0.23351 -0.218478,-0.44474 -0.193813,-0.46941 0.02466,-0.0247 0.145218,0.15324 0.267897,0.39533 0.122678,0.24209 0.209894,0.45333 0.193814,0.46941 -0.01608,0.0161 -0.136636,-0.16182 -0.267898,-0.39533 z m 2.31775,-1.72831 c 0,-0.16066 0.03847,-0.21339 0.141151,-0.19348 0.212371,0.0412 0.230466,0.21545 0.03333,0.32096 -0.155467,0.0832 -0.174479,0.0693 -0.174479,-0.12748 z m -8.490004,-0.46745 c -0.215069,-0.14245 -0.597208,-0.4817 -0.849197,-0.75388 -0.517301,-0.55875 -0.558806,-0.72037 -0.52595,-2.04809 0.02291,-0.9258 0.226015,-1.30665 1.037334,-1.94513 0.315049,-0.24793 1.010967,-0.81429 1.546484,-1.25857 1.004363,-0.83326 3.612908,-2.8634 4.360333,-3.39351 0.232834,-0.16513 0.616488,-0.40852 0.852565,-0.54086 l 0.429232,-0.24061 0.390826,0.14925 c 0.349742,0.13357 0.610139,0.38441 0.399054,0.38441 -0.04511,0 -0.08201,0.0381 -0.08201,0.0847 0,0.0466 0.03931,0.0847 0.08736,0.0847 0.04805,0 0.535079,0.20326 1.082285,0.4517 0.754303,0.34247 1.131432,0.46446 1.559379,0.50442 0.591854,0.0553 1.419211,0.39926 1.420171,0.59047 2.5e-4,0.0574 -0.30737,0.39666 -0.683682,0.75386 -0.646884,0.61404 -0.703943,0.64869 -1.046256,0.63545 -0.334306,-0.0129 -0.413321,0.0306 -1.030827,0.5681 -1.486223,1.29367 -1.938768,1.77092 -1.938768,2.04461 0,0.22566 -0.146921,0.38312 -1.206582,1.29311 -1.23182,1.05783 -1.569641,1.45137 -1.672327,1.94816 -0.06476,0.31332 -0.07599,0.31965 -0.695231,0.39214 -0.415675,0.0486 -0.460203,0.0348 -0.762,-0.23675 -0.17629,-0.15864 -0.587227,-0.39378 -0.913194,-0.52255 -0.726117,-0.28683 -1.61971,-0.72611 -2.254742,-1.10839 -0.491659,-0.29598 -0.666258,-0.349 -0.666258,-0.20233 0,0.0466 0.06668,0.0855 0.148167,0.0865 0.08149,0.001 0.243416,0.0798 0.359833,0.17501 0.191022,0.15625 0.193086,0.16403 0.02117,0.0798 -0.190957,-0.0936 -0.255445,-0.0222 -0.116241,0.12853 0.04084,0.0442 0.140776,0.28998 0.222074,0.5461 0.168161,0.52976 0.296333,0.72019 0.296333,0.44026 0,-0.10244 0.0369,-0.18626 0.08201,-0.18626 0.0451,0 0.06297,0.0496 0.03969,0.11027 -0.02327,0.0606 0.034,0.2828 0.127276,0.49366 0.139834,0.31612 0.229437,0.40314 0.510639,0.49595 0.187576,0.0619 0.341047,0.14455 0.341047,0.18367 0,0.16246 -0.506066,0.0532 -0.870004,-0.1879 z m -0.987819,-2.14068 c -0.0629,-0.0629 -0.08951,0.0497 -0.08951,0.37898 0,0.60902 0.119259,0.72885 0.15301,0.15375 0.01431,-0.24377 -0.01427,-0.4835 -0.0635,-0.53273 z m 1.990894,2.25153 c 0.04214,-0.0349 0.105061,-0.1016 0.139814,-0.14817 0.03606,-0.0483 0.06375,-0.0211 0.06449,0.0635 7.62e-4,0.0824 -0.06137,0.14817 -0.139816,0.14817 -0.07761,0 -0.106629,-0.0286 -0.06448,-0.0635 z m 0.762755,-0.23811 c -0.255989,-0.25599 -0.101929,-0.67986 0.166216,-0.45732 0.136989,0.11369 0.166654,0.46813 0.04545,0.54304 -0.04281,0.0265 -0.138063,-0.0121 -0.211667,-0.0857 z m 5.007322,-0.46466 c 0.103482,-0.1089 0.204525,-0.18106 0.224541,-0.16036 0.02002,0.0207 -0.06465,0.10979 -0.188148,0.19799 l -0.224541,0.16036 z m -14.604342,-1.18039 c -0.06347,-0.25006 -0.06064,-0.32381 0.01087,-0.28346 0.190147,0.10729 0.392993,0.3105 0.392993,0.39369 0,0.0466 -0.07906,0.0131 -0.175681,-0.0743 -0.174252,-0.15769 -0.175211,-0.15711 -0.117822,0.0715 0.03182,0.1268 0.03932,0.23054 0.01665,0.23054 -0.02267,0 -0.07982,-0.1521 -0.127005,-0.33799 z m -7.177374,-0.85312 c -0.03074,-0.0497 -0.105816,-0.0713 -0.166832,-0.0479 -0.155952,0.0598 -1.032536,-1.1103 -1.276923,-1.70454 -0.278004,-0.676 -0.250219,-0.82949 0.05118,-0.28271 0.302037,0.54795 0.584207,0.92561 1.071703,1.43439 0.20025,0.20899 0.386313,0.45 0.413473,0.53558 0.05385,0.16965 -0.0032,0.20979 -0.0926,0.0651 z m 24.175902,-0.19005 c 0,-0.0146 0.123825,-0.1384 0.275167,-0.27517 l 0.275166,-0.24867 -0.248673,0.27517 c -0.231799,0.25649 -0.30166,0.31408 -0.30166,0.24867 z m 7.583108,-0.28736 c -0.0459,-0.12066 -0.0362,-0.13039 0.0474,-0.0474 0.0579,0.0574 0.0839,0.12575 0.0578,0.15182 -0.0261,0.0261 -0.0734,-0.0209 -0.10521,-0.10443 z m -22.953228,-1.04586 c -0.03143,-0.0509 -0.03088,-0.53726 0.0012,-1.08088 0.03872,-0.65546 0.02687,-1.07031 -0.03518,-1.23154 -0.06981,-0.18138 -0.06822,-0.27368 0.0063,-0.36342 0.179287,-0.21603 0.238999,0.004 0.280502,1.0327 0.02767,0.68596 0.01574,0.93115 -0.03696,0.75919 -0.05759,-0.18795 -0.06633,-0.10762 -0.03363,0.3089 0.04157,0.52942 -0.04384,0.79896 -0.182227,0.57505 z m 23.375398,-1.28612 c -0.0869,-0.28088 -0.13118,-1.3278 -0.08,-1.89227 0.0551,-0.6082 0.063,-0.62608 0.21435,-0.48907 0.0999,0.0904 0.12917,0.17608 0.0804,0.23519 -0.0422,0.0511 -0.10304,0.23345 -0.13513,0.40514 -0.0666,0.35656 0.14881,0.84011 0.5903,1.325 l 0.25722,0.28248 -0.26231,-0.0262 c -0.16409,-0.0164 -0.31693,0.0284 -0.40821,0.11968 -0.17386,0.17386 -0.21325,0.18002 -0.25654,0.0401 z M 80.835171,119.0822 c 0,-0.11641 0.05715,-0.25909 0.127,-0.31706 0.107129,-0.0889 0.127,-0.0723 0.127,0.10626 0,0.11642 -0.05715,0.2591 -0.127,0.31707 -0.107129,0.0889 -0.127,0.0723 -0.127,-0.10627 z m 0.352035,-0.65573 c 0,-0.11642 0.01922,-0.16404 0.0427,-0.10583 0.02349,0.0582 0.02349,0.15345 0,0.21166 -0.02349,0.0582 -0.0427,0.0106 -0.0427,-0.10583 z m 10.385773,-1.38225 c -0.0315,-0.1545 -0.0197,-0.21018 0.03331,-0.15716 0.04515,0.0451 0.0671,0.15281 0.04878,0.23925 -0.02467,0.1164 -0.04596,0.0951 -0.08209,-0.0821 z m -0.04059,-0.69574 c -0.02757,-0.0718 -0.03122,-0.14956 -0.0081,-0.17269 0.02312,-0.0231 0.06236,0.0357 0.0872,0.13066 0.05276,0.20175 -0.0059,0.2329 -0.0791,0.042 z m 0.903413,-2.72684 c 8.98e-4,-0.45492 0.02647,-0.61722 0.08337,-0.52917 0.108909,0.16852 0.108909,1.18533 0,1.18533 -0.04927,0 -0.08413,-0.2743 -0.08337,-0.65616 z m -0.339963,0.36249 c 0,-0.14615 -0.0363,-0.19508 -0.120697,-0.1627 -0.231114,0.0887 -0.41631,-0.3646 -0.455718,-1.11541 -0.02041,-0.38889 -0.01257,-0.77101 0.01742,-0.84917 0.04875,-0.12704 0.07004,-0.12862 0.20093,-0.0149 0.08052,0.0699 0.251177,0.15204 0.379235,0.18247 0.214228,0.0509 0.232833,0.088 0.232833,0.46426 0,0.70647 -0.106424,1.7045 -0.181757,1.7045 -0.03973,0 -0.07224,-0.0941 -0.07224,-0.20901 z m 0.726403,0.069 c -0.03108,-0.081 -0.09426,-0.54562 -0.140388,-1.03248 -0.04613,-0.48685 -0.101272,-0.91334 -0.122537,-0.94775 -0.02126,-0.0344 0.103791,-0.0893 0.277903,-0.12195 0.174111,-0.0327 0.346354,-0.10351 0.382763,-0.15745 0.1076,-0.15939 0.0097,1.38732 -0.117962,1.86344 -0.136303,0.5084 -0.201366,0.60053 -0.279779,0.39619 z"
         style="fill:#fbfcfb;stroke-width:0.0846667" />
      <path
         id="path1021"
         d="m 71.860504,120.20447 v -13.716 h 22.352001 22.352005 v 13.716 13.716 H 94.212505 71.860504 Z m 27.641333,13.37692 c 1.658873,-0.28504 3.109193,-0.78866 4.320333,-1.5002 0.6794,-0.39916 1.98963,-1.43785 2.11958,-1.68032 0.0482,-0.0899 0.24584,-0.40379 0.43927,-0.69761 0.44091,-0.66971 0.68099,-1.38331 0.79094,-2.35096 0.0645,-0.56783 0.0604,-0.80171 -0.0165,-0.94548 -0.19727,-0.36859 -0.37086,-0.14923 -0.45699,0.5775 -0.1164,0.98213 -0.5867,1.99616 -1.27912,2.75795 -0.23905,0.263 -0.27753,0.27293 -2.69784,0.69576 -2.75706,0.48167 -2.6409,0.48299 -3.870961,-0.0438 l -0.743377,-0.3184 -0.009,-0.85049 c -0.01251,-1.18189 -0.01217,-1.17986 -0.213105,-1.26811 -0.159506,-0.0701 -0.184316,-0.16583 -0.22008,-0.84957 -0.02217,-0.42384 -0.08243,-0.84932 -0.133917,-0.94552 -0.09181,-0.17155 -0.07179,-0.176 1.040743,-0.23184 0.623893,-0.0313 1.603257,-0.11244 2.176357,-0.18029 0.91979,-0.1089 2.30412,-0.26244 4.04767,-0.44895 0.51488,-0.0551 0.55033,-0.0725 0.55033,-0.27054 0,-0.24842 0.13068,-0.24278 -3.21733,-0.13884 -2.476611,0.0769 -3.558667,0.17569 -4.325408,0.39496 -0.321597,0.092 -0.589924,0.16721 -0.596283,0.16721 -0.0064,0 -0.03162,-0.0767 -0.05614,-0.17046 -0.02452,-0.0938 -0.176828,-0.22573 -0.338467,-0.29326 -0.258025,-0.10781 -0.301,-0.17021 -0.352154,-0.51134 -0.05676,-0.3785 -0.04882,-0.39707 0.307426,-0.71926 0.201129,-0.1819 0.396725,-0.3323 0.434656,-0.33421 0.03793,-0.002 0.165143,-0.11777 0.282693,-0.25747 0.11755,-0.1397 0.263544,-0.254 0.32443,-0.254 0.06089,0 0.227785,-0.13335 0.370887,-0.29633 l 0.260184,-0.29633 1.50542,1.7e-4 c 0.827986,8e-5 2.387856,0.0251 3.466396,0.0556 2.2236,0.0629 2.06777,0.004 2.19146,0.82878 0.0458,0.30524 0.10691,0.42015 0.26084,0.49029 0.11058,0.0504 0.20106,0.12359 0.20106,0.16268 0,0.11582 0.54814,0.081 0.87495,-0.0555 0.31688,-0.1324 0.29582,-0.0873 0.70256,-1.50325 0.0573,-0.1996 0.12322,-0.1896 0.71305,0.10814 0.71187,0.35935 1.45532,0.53602 1.96893,0.46789 0.41367,-0.0549 0.41809,-0.053 0.37738,0.15993 -0.0571,0.29877 0.11678,0.41799 0.5057,0.34673 0.60701,-0.11122 1.59314,-0.49209 2.56216,-0.98956 0.89655,-0.46027 1.01675,-0.55172 1.51659,-1.15376 0.6711,-0.80832 0.92995,-1.35922 1.06349,-2.26338 0.14408,-0.97551 0.0464,-1.60158 -0.38934,-2.49682 -0.29049,-0.59675 -0.48299,-0.84981 -1.12712,-1.48167 -0.86211,-0.84567 -1.68777,-1.37836 -2.96117,-1.91043 -0.93221,-0.38951 -2.4101,-0.80205 -2.50812,-0.70012 -0.0373,0.0388 -0.0801,0.21991 -0.0951,0.40246 -0.0239,0.29171 -0.002,0.33932 0.18356,0.3931 1.77394,0.51505 3.43085,1.17904 3.36955,1.35032 -0.0144,0.0401 -0.8157,1.04114 -1.78077,2.22452 -1.65065,2.02407 -2.4072,2.85451 -2.60051,2.85451 -0.0458,0 -0.12478,-0.16192 -0.17548,-0.35983 -0.20705,-0.80813 -0.41919,-1.333 -0.70912,-1.75449 -0.16824,-0.24457 -0.30589,-0.4726 -0.30589,-0.50672 0,-0.0341 0.0762,-0.13101 0.16934,-0.21529 0.33917,-0.30695 0.18665,-0.7934 -0.62385,-1.98967 -0.23662,-0.34925 -0.60263,-0.95885 -0.81336,-1.35466 -0.35404,-0.66503 -0.40484,-0.72175 -0.66906,-0.747 -0.39917,-0.0382 -0.45938,0.0606 -0.30405,0.49887 0.0731,0.20632 0.24267,0.8177 0.37677,1.35863 0.27668,1.1161 0.41258,1.47522 0.76763,2.02854 0.13746,0.21419 0.24992,0.4363 0.24992,0.49355 0,0.0573 -0.12823,0.22538 -0.28494,0.37359 -0.26756,0.25305 -0.28866,0.31444 -0.34598,1.00693 -0.0514,0.62121 -0.0866,0.74556 -0.22307,0.78888 -0.16298,0.0517 -0.19422,0.12677 -0.16644,0.39984 0.008,0.0815 -0.0159,0.14824 -0.0537,0.14833 -0.1969,4.2e-4 -4.82904,-1.90951 -4.93716,-2.03574 -0.20704,-0.24172 -0.766749,-0.47923 -1.354666,-0.57485 -0.581281,-0.0945 -2.659062,-0.95693 -2.677583,-1.11134 -0.0058,-0.0485 -0.01535,-0.12116 -0.02117,-0.1614 -0.01332,-0.0921 -0.723448,-0.36748 -0.873035,-0.33857 -0.06117,0.0118 -0.38744,-0.11978 -0.725048,-0.29245 l -0.613834,-0.31394 v -0.37379 c 0,-0.29787 -0.04299,-0.40761 -0.211666,-0.54029 -0.116417,-0.0916 -0.211667,-0.19775 -0.211667,-0.23595 0,-0.0382 0.148521,-0.35656 0.330047,-0.70748 0.181525,-0.35092 0.434482,-0.93434 0.562125,-1.29649 0.127644,-0.36215 0.259445,-0.67537 0.29289,-0.69604 0.03345,-0.0207 0.894915,-0.11481 1.914376,-0.20919 1.019459,-0.0944 2.091687,-0.19377 2.382729,-0.22086 0.458634,-0.0427 0.529167,-0.0721 0.529167,-0.22067 0,-0.1622 -0.03523,-0.16838 -0.656167,-0.115 -0.72847,0.0626 -3.945649,0.20482 -3.979933,0.17592 -0.01197,-0.0101 0.192762,-0.61497 0.454965,-1.34419 0.361356,-1.00497 0.51159,-1.32584 0.62077,-1.32584 0.278892,0 1.375134,0.42029 2.118368,0.81216 0.818419,0.43152 1.018663,0.44001 1.018663,0.0432 0,-0.31025 -0.122613,-0.43553 -0.787486,-0.80458 -1.353853,-0.7515 -3.352561,-1.22751 -5.450361,-1.29807 -2.77874,-0.0935 -5.207865,0.42636 -7.082376,1.51557 -1.184566,0.68831 -2.343111,2.13221 -2.343111,2.92023 0,0.24084 0.02969,0.28281 0.200044,0.28281 0.161094,0 0.250877,-0.10303 0.461123,-0.52917 0.143594,-0.29104 0.437862,-0.70061 0.653928,-0.91016 l 0.392849,-0.381 0.380697,0.42333 c 0.629927,0.70048 0.985418,1.14516 0.946543,1.18404 -0.02021,0.0202 -0.358963,0.0625 -0.752794,0.094 -0.827093,0.0661 -1.014095,0.13648 -0.95577,0.35952 0.03545,0.13558 0.158037,0.16584 0.860197,0.21234 0.450367,0.0298 0.991786,0.0544 1.203151,0.0547 0.379599,4.3e-4 0.392982,0.0104 1.093619,0.81057 0.822909,0.93987 1.543208,1.48566 2.400119,1.81864 l 0.609295,0.23676 0.02433,0.6204 c 0.01942,0.49508 0.05746,0.64606 0.18834,0.7474 0.116416,0.0901 0.177938,0.27227 0.212009,0.6276 0.05588,0.58276 0.08277,0.6424 0.289617,0.6424 0.187029,0 0.311033,0.15014 0.322956,0.39102 0.0065,0.13098 -0.189302,0.32917 -0.725854,0.73476 l -0.734732,0.55541 -3.627826,1.10674 c -1.995304,0.60871 -3.681229,1.10674 -3.7465,1.10674 -0.07932,0 -0.118674,-0.0989 -0.118674,-0.29815 0,-0.23218 -0.04476,-0.31854 -0.202297,-0.39032 -0.185353,-0.0844 -0.207311,-0.15905 -0.262156,-0.89058 -0.05557,-0.74119 -0.07596,-0.80864 -0.284536,-0.94122 -0.434738,-0.27635 -0.420077,-0.41052 0.07528,-0.68893 0.198795,-0.11173 0.35564,-0.2724 0.386693,-0.39612 0.07095,-0.28269 -0.07691,-0.82761 -0.43913,-1.61834 -0.166453,-0.36337 -0.389114,-0.98452 -0.494805,-1.38034 -0.167425,-0.62702 -0.221675,-0.73015 -0.421408,-0.80108 -0.472306,-0.16774 -0.509639,-0.0619 -0.584294,1.65672 -0.05937,1.36668 -0.04925,1.62474 0.08262,2.10769 0.201373,0.73749 0.197473,1.03602 -0.01497,1.14598 -0.11065,0.0573 -0.171205,0.177 -0.174732,0.34549 -0.003,0.14182 -0.08869,0.39263 -0.1905,0.55735 -0.199279,0.32244 -0.237632,0.76533 -0.09807,1.13241 0.04787,0.12591 0.07046,0.2455 0.0502,0.26576 -0.06164,0.0616 -0.539767,-0.21658 -0.870247,-0.5064 -0.269659,-0.23649 -3.83899,-4.89639 -3.83899,-5.01195 0,-0.16752 1.787449,-0.86111 2.952042,-1.14548 l 0.793042,-0.19365 -0.05257,-0.38356 c -0.02891,-0.21096 -0.06698,-0.39797 -0.08459,-0.41558 -0.05398,-0.054 -1.150662,0.2196 -1.999256,0.49874 -2.31894,0.76281 -4.111858,2.04351 -4.970992,3.55082 -0.501719,0.88024 -0.646328,1.50953 -0.583728,2.54018 0.06299,1.03706 0.260271,1.58146 0.863928,2.38399 0.421003,0.55971 1.203794,1.23302 1.445236,1.24311 0.05433,0.002 0.111478,0.0331 0.127,0.0685 0.04296,0.098 1.657441,0.83029 2.20394,0.99959 0.591816,0.18335 0.78934,0.087 0.718344,-0.35054 l -0.0435,-0.26806 0.73839,0.0421 c 0.812373,0.0463 1.404894,-0.0797 2.1503,-0.45746 0.456786,-0.23147 0.584356,-0.228 0.619796,0.0169 0.04545,0.31401 0.227928,0.92713 0.299768,1.00718 0.0397,0.0442 0.07219,0.13971 0.07219,0.21216 0,0.22706 1.04176,0.55937 1.17264,0.37407 0.03026,-0.0429 0.154161,-0.14089 0.275325,-0.21786 0.17212,-0.10934 0.230975,-0.23009 0.269116,-0.55214 0.02685,-0.22671 0.116647,-0.53038 0.199549,-0.67483 l 0.150732,-0.26263 1.823819,-0.0549 c 1.0031,-0.0302 1.905146,-0.0719 2.004546,-0.0926 0.165542,-0.0345 0.185695,0.009 0.239869,0.51459 0.0557,0.5201 0.08637,0.58168 0.526564,1.05714 0.257082,0.27768 0.659549,0.62886 0.894371,0.78039 l 0.426951,0.27553 -0.541575,0.0708 c -0.764475,0.10002 -0.7677,0.10184 -0.737481,0.4154 l 0.02657,0.27575 1.43347,0.0625 c 0.823225,0.0359 1.98681,0.15301 2.733268,0.27517 0.714889,0.11698 1.403328,0.21426 1.529863,0.21617 0.189685,0.003 0.263201,0.0734 0.41885,0.40217 0.103831,0.21928 0.271815,0.53204 0.373299,0.69503 0.147055,0.23617 0.186077,0.43384 0.192216,0.97366 l 0.0077,0.67734 0.27791,0.12229 c 0.182195,0.0802 0.261804,0.16426 0.231148,0.24415 -0.02572,0.067 0.02636,0.24579 0.115727,0.39726 l 0.162489,0.27539 -0.240527,0.36332 c -0.295725,0.4467 -0.351957,0.47872 -1.193558,0.67973 -0.868846,0.20752 -0.854221,0.20835 -1.782538,-0.10145 -1.305491,-0.43567 -3.154043,-1.4566 -3.670285,-2.02704 -0.21287,-0.23522 -0.346863,-0.2053 -0.45375,0.10131 -0.159976,0.45891 -0.114352,0.61095 0.28301,0.94311 0.206777,0.17284 0.41225,0.31426 0.456608,0.31426 0.04436,0 0.103507,0.0596 0.131443,0.13237 0.02794,0.0728 0.08682,0.1101 0.130855,0.0829 0.04403,-0.0272 0.110978,0.001 0.148765,0.0627 0.08675,0.1417 2.004436,1.11303 2.476882,1.25458 0.194412,0.0582 0.390669,0.1754 0.436128,0.26034 0.04546,0.0849 0.15751,0.15443 0.249005,0.15443 0.0915,0 0.166355,0.0354 0.166355,0.0788 0,0.0471 0.101303,0.0497 0.252274,0.006 0.171533,-0.0492 0.503479,-0.0211 1.037166,0.0878 1.766879,0.36043 3.889991,0.39051 5.693225,0.0807 z m -2.120888,-0.90172 c 0.03304,-0.0859 0.135095,-0.47777 0.226798,-0.87079 0.0917,-0.39303 0.205568,-0.76139 0.253034,-0.81858 0.06652,-0.0802 0.234576,-0.0364 0.733138,0.19079 1.272659,0.57997 1.927451,0.65081 3.407921,0.36871 1.0511,-0.20028 1.2203,-0.20782 0.93133,-0.0415 -0.99848,0.57468 -2.996577,1.08026 -5.028642,1.2724 -0.543979,0.0514 -0.579561,0.0446 -0.523579,-0.10102 z m -2.152444,-0.0198 c 0,-0.0414 0.06698,-0.15801 0.148845,-0.2591 l 0.148846,-0.18382 0.0978,0.2591 c 0.09516,0.25211 0.09114,0.25911 -0.148845,0.25911 -0.135656,0 -0.246646,-0.0339 -0.246646,-0.0753 z m 0.274406,-4.43321 c -0.04675,-0.0582 -0.182669,-0.30046 -0.302049,-0.53834 l -0.217054,-0.43251 0.334015,-0.21869 0.334015,-0.21868 v 0.75702 c 0,0.41637 -0.01438,0.75703 -0.03197,0.75703 -0.01758,0 -0.07021,-0.0476 -0.116961,-0.10583 z m -0.04789,-2.91321 c -0.07631,-0.0763 0.105925,-0.28296 0.249521,-0.28296 0.06415,0 0.116634,0.0762 0.116634,0.16933 0,0.16473 -0.240438,0.23934 -0.366155,0.11363 z m -19.234179,-2.42878 -2.201334,-0.43912 -0.465667,-0.46546 c -0.555526,-0.55529 -1.005144,-1.36258 -1.071656,-1.92417 -0.05901,-0.49828 0.137002,-1.31577 0.459212,-1.91516 0.269674,-0.50166 1.21964,-1.53355 1.81236,-1.96864 0.403318,-0.29606 0.662751,-0.3296 0.662751,-0.0857 0,0.0663 0.05715,0.14253 0.127,0.16933 0.06985,0.0268 0.127,0.10708 0.127,0.1784 0,0.0713 0.03026,0.12965 0.06725,0.12965 0.0855,0 1.118087,1.38963 1.118087,1.50469 0,0.0472 0.05715,0.10779 0.127,0.1346 0.06985,0.0268 0.127,0.10708 0.127,0.17839 0,0.0713 0.03075,0.12966 0.06834,0.12966 0.08945,0 0.862996,1.05423 0.862996,1.17613 0,0.0516 0.0393,0.0939 0.08732,0.0939 0.04803,0 0.109501,0.0578 0.136607,0.12843 0.08556,0.22295 0.977469,1.13912 1.422736,1.46142 0.235217,0.17026 0.450976,0.34264 0.479466,0.38308 0.02849,0.0404 0.07692,0.0688 0.107626,0.0631 0.163539,-0.0306 0.320831,0.17204 0.342149,0.44071 l 0.02415,0.30442 -0.738241,0.33818 c -0.406032,0.186 -0.905321,0.35734 -1.109531,0.38075 -0.252678,0.029 -1.074528,-0.0977 -2.572623,-0.39657 z m 7.496098,-0.0868 c 0.02463,-0.0246 0.645814,-0.14588 1.380404,-0.26943 1.286293,-0.21634 1.34181,-0.21904 1.503253,-0.0729 0.12683,0.11478 0.141095,0.16581 0.05861,0.20964 -0.128716,0.0684 -3.007821,0.19827 -2.942263,0.13272 z m 25.47258,-0.82503 c -0.18224,-0.0669 -0.25234,-0.19002 -0.40263,-0.70725 -0.10008,-0.34446 -0.20157,-0.67735 -0.22552,-0.73976 -0.0256,-0.0666 0.0708,-0.18036 0.2333,-0.27537 0.53984,-0.31568 1.31614,-1.1612 2.98468,-3.25082 1.51178,-1.89329 1.70655,-2.10614 1.8547,-2.02686 0.091,0.0487 0.48105,0.39988 0.86668,0.78034 0.55778,0.5503 0.76667,0.82943 1.02155,1.36507 0.41188,0.86563 0.48196,1.65425 0.20303,2.28483 -0.25611,0.57897 -0.73985,1.18144 -1.27075,1.58264 -0.45543,0.34417 -0.47424,0.34963 -2.45533,0.71282 -2.05515,0.37677 -2.43073,0.41344 -2.80971,0.27436 z m -25.094678,-0.0562 c 0.07842,-0.0722 4.493815,-1.46222 4.6355,-1.45936 0.163452,0.003 0.02243,0.1779 -0.432103,0.535 -0.474191,0.37255 -0.539121,0.39663 -1.502833,0.55751 -0.553977,0.0925 -1.312031,0.20984 -1.684564,0.26081 -0.372533,0.051 -0.772583,0.11321 -0.889,0.13831 -0.131509,0.0284 -0.179604,0.0161 -0.127,-0.0323 z m 18.127308,-0.36909 c -1.39225,-0.0384 -2.552342,-0.0908 -2.57799,-0.11645 -0.02565,-0.0256 0.07403,-0.1673 0.221509,-0.31478 0.322161,-0.32216 0.223271,-0.32103 2.686501,-0.0306 2.56024,0.30185 2.52559,0.29553 2.40631,0.43925 -0.0543,0.0654 -0.12262,0.11297 -0.15184,0.10567 -0.0292,-0.007 -1.19225,-0.0447 -2.58449,-0.0831 z m 0.92021,-1.28841 c -1.02583,-0.23957 -1.91234,-0.46683 -1.97002,-0.50502 -0.16494,-0.1092 0.22898,-0.55605 0.49083,-0.55678 0.27067,-7.6e-4 3.49639,1.29405 3.53849,1.42034 0.0439,0.13179 0.0296,0.12929 -2.0593,-0.35854 z m -9.827329,-3.61898 c 0.07437,-0.46507 0.10093,-0.48711 0.321361,-0.26668 0.154287,0.15429 0.164397,0.2014 0.06811,0.31742 -0.06219,0.0749 -0.188437,0.17657 -0.280553,0.22587 -0.158336,0.0847 -0.164286,0.0696 -0.10892,-0.27661 z m 0.594084,-0.70774 c -0.301909,-0.26659 -0.314243,-0.29313 -0.137733,-0.29634 0.10663,-0.002 0.347581,0.0749 0.535447,0.17074 0.281125,0.14342 0.323644,0.19586 0.24026,0.29633 -0.152257,0.18346 -0.27364,0.15097 -0.637974,-0.17073 z m -3.42119,-2.22799 c -0.447653,-0.17834 -0.671222,-0.34457 -1.205417,-0.89627 -0.360707,-0.37253 -0.641964,-0.69119 -0.625016,-0.70814 0.01695,-0.0169 0.368887,0.0115 0.782083,0.0632 0.855582,0.10713 1.392502,0.0551 1.785088,-0.17308 l 0.27182,-0.15797 0.02451,0.69367 c 0.02236,0.63282 0.0078,0.70721 -0.165987,0.84798 -0.104775,0.0849 -0.1905,0.2468 -0.1905,0.35983 0,0.24552 0.0148,0.24616 -0.676584,-0.0293 z m 2.780257,-1.33965 c -0.02805,-0.77669 -0.03999,-0.82095 -0.27135,-1.00534 -0.133106,-0.10608 -0.205528,-0.21542 -0.160937,-0.24298 0.08922,-0.0551 1.213436,-0.0549 1.309879,2.8e-4 0.102264,0.0585 -0.690383,2.06049 -0.815813,2.06049 -0.01784,0 -0.04564,-0.36561 -0.06178,-0.81245 z m -6.51388,-2.33255 c -1.004751,-1.09432 -1.023156,-0.96352 0.219207,-1.55798 1.553191,-0.74318 3.214408,-1.07994 5.376333,-1.08988 1.350638,-0.006 3.003091,0.1444 3.083641,0.28104 0.01647,0.028 -0.206351,0.69696 -0.495168,1.48669 l -0.525121,1.43588 -0.714177,0.1057 c -0.936637,0.13863 -0.925841,0.13925 -0.925841,-0.0535 0,-0.15832 -0.224177,-0.34165 -0.417768,-0.34165 -0.04963,0 -0.173956,0.0837 -0.276286,0.18605 -0.17063,0.17063 -0.277655,0.18742 -1.291166,0.20248 -0.607812,0.009 -1.495388,0.0777 -1.97239,0.15261 -0.477002,0.0749 -0.94098,0.13619 -1.031062,0.13619 -0.100318,0 -0.499536,-0.36568 -1.030202,-0.94366 z"
         style="display:inline;fill:#07a400;fill-opacity:0;stroke-width:0.0846667" />
      <path
         id="path1019"
         d="m 95.440172,133.74608 c -0.4191,-0.0431 -1.08585,-0.14072 -1.481667,-0.2169 -0.395817,-0.0762 -0.943523,-0.14659 -1.217125,-0.15645 -0.380247,-0.0137 -0.529866,-0.0577 -0.635,-0.18679 -0.07565,-0.0929 -0.328042,-0.23792 -0.560875,-0.32234 -1.506986,-0.54639 -3.344334,-1.75641 -3.344334,-2.20247 0,-0.098 -0.04293,-0.22106 -0.0954,-0.27353 -0.121312,-0.12131 -0.02392,-0.53113 0.126224,-0.53113 0.06175,0 0.17959,0.0744 0.261876,0.16532 0.516241,0.57044 2.364793,1.59137 3.670285,2.02704 0.927888,0.30966 0.916849,0.30902 1.767819,0.10216 0.90809,-0.22076 0.916438,-0.22547 1.210968,-0.68446 0.258079,-0.40218 0.26067,-0.41735 0.223874,-1.31071 -0.0404,-0.98094 -0.138312,-1.32624 -0.138312,-0.48779 0,0.28441 -0.03794,0.54056 -0.08432,0.56923 -0.04638,0.0287 -0.189253,0.002 -0.3175,-0.0603 -0.232387,-0.11208 -0.23318,-0.11547 -0.233936,-0.99962 -6.78e-4,-0.82891 -0.01739,-0.91634 -0.254,-1.33167 -0.200769,-0.35242 -0.305871,-0.45236 -0.507241,-0.48233 -0.1397,-0.0208 -0.9017,-0.13684 -1.693333,-0.25788 -0.791634,-0.12104 -2.067984,-0.2469 -2.836334,-0.27968 l -1.397,-0.0596 -0.02657,-0.27575 c -0.03086,-0.32016 -0.05745,-0.30755 0.936741,-0.44426 0.407458,-0.056 0.740833,-0.12992 0.740833,-0.16421 0,-0.0343 -0.153471,-0.113 -0.341047,-0.1749 -0.281202,-0.0928 -0.370805,-0.17983 -0.510639,-0.49595 -0.09327,-0.21086 -0.150551,-0.43301 -0.127276,-0.49366 0.02327,-0.0606 0.0054,-0.11027 -0.03969,-0.11027 -0.04511,0 -0.08201,0.0838 -0.08201,0.18626 0,0.27993 -0.128172,0.0895 -0.296333,-0.44026 -0.0813,-0.25612 -0.181231,-0.50187 -0.222074,-0.5461 -0.139204,-0.15078 -0.07472,-0.22209 0.116241,-0.12853 0.171919,0.0842 0.169855,0.0764 -0.02117,-0.0798 -0.116417,-0.0952 -0.278342,-0.17398 -0.359833,-0.17501 -0.08149,-10e-4 -0.148167,-0.04 -0.148167,-0.0865 0,-0.14667 0.174599,-0.0937 0.666258,0.20233 0.635032,0.38228 1.528625,0.82156 2.254742,1.10839 0.325967,0.12877 0.736904,0.36391 0.913194,0.52255 0.301797,0.27157 0.346325,0.2854 0.762,0.23675 0.619241,-0.0725 0.63047,-0.0788 0.695231,-0.39214 0.102686,-0.49679 0.440507,-0.89033 1.672327,-1.94816 1.059661,-0.90999 1.206582,-1.06745 1.206582,-1.29311 0,-0.27369 0.452545,-0.75094 1.938768,-2.04461 0.617506,-0.5375 0.696521,-0.58104 1.030827,-0.5681 0.342854,0.0133 0.399208,-0.0212 1.062393,-0.64969 l 0.700331,-0.6637 2.33284,0.93535 c 1.28306,0.51444 2.39952,0.95392 2.48101,0.97662 0.11743,0.0327 0.14817,-0.0116 0.14817,-0.21355 0,-0.15826 0.0527,-0.27504 0.13911,-0.3082 0.19951,-0.0766 0.22705,-0.0204 0.26805,0.5464 0.0412,0.56884 0.10501,0.65793 0.31854,0.4444 0.092,-0.092 0.24446,-0.13691 0.40899,-0.12046 l 0.26231,0.0262 -0.25722,-0.28248 c -0.44149,-0.48489 -0.65692,-0.96844 -0.5903,-1.325 0.0321,-0.17169 0.0935,-0.35473 0.13647,-0.40676 0.05,-0.0605 0.032,-0.13285 -0.0499,-0.20086 -0.19278,-0.15999 -0.15561,-0.31409 0.12596,-0.52226 0.31636,-0.2339 0.31688,-0.33945 0.004,-0.8269 -0.35505,-0.55332 -0.49095,-0.91244 -0.76763,-2.02854 -0.1341,-0.54093 -0.30364,-1.15231 -0.37677,-1.35863 -0.15533,-0.43823 -0.0951,-0.53703 0.30405,-0.49887 0.26422,0.0252 0.31502,0.082 0.66906,0.747 0.21073,0.39581 0.57674,1.00541 0.81336,1.35466 0.8105,1.19627 0.96302,1.68272 0.62385,1.98967 -0.0931,0.0843 -0.16934,0.18116 -0.16934,0.21529 0,0.0341 0.13765,0.26215 0.30589,0.50672 0.28993,0.42149 0.50207,0.94636 0.70912,1.75449 0.0507,0.19791 0.12967,0.35983 0.17548,0.35983 0.19331,0 0.94986,-0.83044 2.60051,-2.85448 0.96507,-1.18338 1.76641,-2.18442 1.78077,-2.22453 0.0613,-0.17128 -1.59561,-0.83527 -3.36955,-1.35031 -0.18526,-0.0538 -0.20749,-0.10139 -0.18356,-0.39311 0.015,-0.18254 0.0578,-0.36365 0.0951,-0.40245 0.098,-0.10194 1.57591,0.3106 2.50812,0.70011 1.2734,0.53208 2.09906,1.06477 2.96117,1.91044 0.64413,0.63186 0.83663,0.88491 1.12712,1.48167 0.43579,0.89524 0.53342,1.52131 0.38934,2.49681 -0.13354,0.90416 -0.39239,1.45507 -1.06349,2.26339 -0.49984,0.60204 -0.62004,0.69348 -1.51659,1.15376 -0.96902,0.49747 -1.95515,0.87833 -2.56216,0.98955 -0.38892,0.0713 -0.56281,-0.048 -0.5057,-0.34672 0.0407,-0.21294 0.0363,-0.21482 -0.37738,-0.15994 -0.51361,0.0681 -1.25706,-0.10854 -1.96893,-0.46789 -0.58983,-0.29774 -0.65571,-0.30773 -0.71305,-0.10813 -0.40674,1.41591 -0.38568,1.37085 -0.70256,1.50325 -0.36923,0.15427 -0.76164,0.16312 -0.92039,0.0208 -0.0649,-0.0582 -0.17404,-0.15267 -0.24251,-0.20991 -0.0685,-0.0572 -0.14791,-0.28585 -0.17653,-0.508 -0.0881,-0.68342 -0.0122,-0.65177 -1.70347,-0.71086 -0.83328,-0.0291 -2.40181,-0.0577 -3.48562,-0.0635 l -1.970568,-0.0106 -0.992765,0.8588 c -0.546022,0.47235 -1.00515,0.86891 -1.020285,0.88124 -0.01514,0.0123 -0.0011,0.19876 0.03124,0.41427 0.0517,0.34474 0.09408,0.40659 0.352648,0.51463 0.161639,0.0675 0.313949,0.1995 0.338467,0.29326 0.02452,0.0937 0.04978,0.17046 0.05614,0.17046 0.0064,0 0.274686,-0.0752 0.596283,-0.16721 0.766741,-0.21927 1.848797,-0.31807 4.32541,-0.39496 3.34801,-0.10394 3.21733,-0.10958 3.21733,0.13884 0,0.19803 -0.0354,0.21546 -0.55033,0.27054 -1.80789,0.19339 -3.12792,0.34051 -4.02167,0.44821 -0.5588,0.0673 -1.597025,0.14864 -2.307167,0.18066 -1.287115,0.058 -1.291167,0.0589 -1.291167,0.25972 0,0.17297 0.02318,0.18909 0.163768,0.11385 0.238185,-0.12747 0.259566,-0.11395 0.259566,0.16418 0,0.33186 -0.338844,0.51017 -0.969462,0.51017 h -0.469872 v -0.30137 -0.30137 l -0.402166,0.33356 c -0.221192,0.18347 -0.488982,0.37816 -0.595091,0.43265 l -0.192923,0.0991 0.27759,0.51776 c 0.152675,0.28477 0.312327,0.50885 0.354784,0.49797 0.04246,-0.0109 0.124813,0.0935 0.183014,0.23188 0.100612,0.23929 0.412809,0.42738 0.524303,0.31589 0.02864,-0.0286 0.07695,-0.4417 0.107342,-0.9179 l 0.05526,-0.86581 0.01328,0.9525 0.01328,0.9525 h 0.262097 c 0.40253,0 0.743959,-0.289 0.806969,-0.68304 0.03843,-0.24036 0.09445,-0.33296 0.201388,-0.33296 0.173325,0 0.355107,0.1928 0.333335,0.35355 -0.0083,0.0617 -0.01067,0.49483 -0.0052,0.9626 l 0.01003,0.85049 0.743377,0.3184 c 1.230065,0.52684 1.113901,0.52552 3.870965,0.0438 2.42031,-0.42283 2.45879,-0.43276 2.69784,-0.69576 0.69242,-0.76179 1.16272,-1.77582 1.27912,-2.75795 0.0861,-0.72673 0.25972,-0.94609 0.45699,-0.5775 0.0769,0.14377 0.081,0.37765 0.0165,0.94548 -0.10995,0.96765 -0.35003,1.68125 -0.79094,2.35096 -0.19343,0.29382 -0.3911,0.60774 -0.43927,0.69761 -0.12995,0.24247 -1.44018,1.28116 -2.11958,1.68032 -1.74711,1.02643 -3.976999,1.61602 -6.437004,1.70196 -0.650649,0.0227 -1.525898,0.006 -1.944998,-0.0371 z m 3.683,-1.10606 c 1.233908,-0.16611 3.090428,-0.71758 3.809998,-1.13173 0.28897,-0.16631 0.11977,-0.15877 -0.93133,0.0415 -1.48047,0.2821 -2.135262,0.21126 -3.407921,-0.36871 -0.498562,-0.2272 -0.666621,-0.27094 -0.733138,-0.19079 -0.04747,0.0572 -0.161331,0.42555 -0.253034,0.81858 -0.0917,0.39302 -0.193762,0.78488 -0.226798,0.87079 -0.05598,0.1456 -0.0204,0.15246 0.523579,0.10102 0.321004,-0.0303 0.869394,-0.0936 1.218644,-0.14067 z m -3.250608,-0.0388 c -0.02827,-0.0737 -0.05242,-0.25463 -0.05368,-0.40217 l -0.0023,-0.26824 -0.294042,0.31626 c -0.161724,0.17394 -0.294042,0.35492 -0.294042,0.40217 0,0.0473 0.156476,0.0859 0.347725,0.0859 0.282295,0 0.338054,-0.0252 0.296333,-0.13393 z m -0.93309,-4.76233 c -0.118662,-0.23417 -0.259517,-0.45281 -0.31301,-0.48587 -0.119624,-0.0739 -0.09828,-0.0221 0.218662,0.531 0.316816,0.55288 0.381664,0.52186 0.09435,-0.0451 z m -5.046265,-2.10991 c -7.62e-4,-0.0846 -0.02843,-0.11182 -0.06449,-0.0635 -0.03475,0.0466 -0.09767,0.11324 -0.139814,0.14817 -0.04214,0.0349 -0.01313,0.0635 0.06448,0.0635 0.07844,0 0.140536,-0.0658 0.139816,-0.14817 z m 0.847963,-0.31213 c 0,-0.22139 -0.200945,-0.42915 -0.334959,-0.34633 -0.131381,0.0812 -0.106954,0.35262 0.04545,0.50502 0.166563,0.16657 0.289508,0.0992 0.289509,-0.15869 z m 5.08,-0.21204 c 0,-0.24061 -0.156142,-0.29718 -0.346003,-0.12536 -0.127218,0.11513 -0.140807,0.16622 -0.05816,0.21867 0.197911,0.1256 0.404168,0.078 0.404168,-0.0933 z m 16.178058,-3.50637 c 1.98109,-0.36319 1.9999,-0.36865 2.45533,-0.71282 0.5309,-0.4012 1.01464,-1.00367 1.27075,-1.58264 0.27893,-0.63058 0.20885,-1.4192 -0.20303,-2.28483 -0.25488,-0.53564 -0.46377,-0.81477 -1.02155,-1.36507 -0.38563,-0.38046 -0.77564,-0.73161 -0.86668,-0.78034 -0.14815,-0.0793 -0.34292,0.13357 -1.8547,2.02686 -1.66854,2.08962 -2.44484,2.93514 -2.98468,3.25082 -0.1625,0.095 -0.25886,0.20875 -0.2333,0.27537 0.0239,0.0624 0.12544,0.3953 0.22552,0.73976 0.27644,0.95137 0.33854,0.95974 3.21234,0.43289 z m -7.04075,-0.17356 c 0.11928,-0.14372 0.15393,-0.1374 -2.40631,-0.43925 -2.46323,-0.29042 -2.36434,-0.29155 -2.686505,0.0306 -0.147479,0.14748 -0.247158,0.28913 -0.221509,0.31478 0.02565,0.0256 1.185744,0.0781 2.577994,0.11645 1.39224,0.0384 2.55527,0.0758 2.58449,0.0831 0.0292,0.007 0.0975,-0.0403 0.15184,-0.10567 z m 0.24318,-0.90728 c -0.0421,-0.12629 -3.26782,-1.42108 -3.53849,-1.42034 -0.26185,7.7e-4 -0.65577,0.44758 -0.49083,0.55678 0.097,0.0643 3.69475,0.92951 3.94805,0.94952 0.0621,0.005 0.0987,-0.0338 0.0813,-0.086 z m -23.654083,4.50605 c -0.302422,-0.13735 -0.359464,-0.20899 -0.453553,-0.56964 -0.05919,-0.22689 -0.127664,-0.48873 -0.152158,-0.58186 -0.0439,-0.16691 -0.04195,-0.16703 0.136053,-0.008 0.09932,0.0887 0.180585,0.12005 0.180585,0.0696 0,-0.0504 -0.09525,-0.16657 -0.211666,-0.25814 -0.116417,-0.0916 -0.211667,-0.20864 -0.211667,-0.26015 0,-0.14813 -0.226791,-0.11029 -0.662597,0.11055 -0.735848,0.37289 -1.331343,0.49879 -2.140785,0.45264 l -0.73839,-0.0421 0.0435,0.26806 c 0.07098,0.43737 -0.126457,0.53382 -0.718344,0.35094 -0.635439,-0.19634 -1.938949,-0.81141 -2.417728,-1.14082 -0.209641,-0.14424 -0.417261,-0.26225 -0.461377,-0.26225 -0.04412,0 -0.127642,-0.0572 -0.185613,-0.127 -0.127171,-0.15323 0.0051,-0.17052 0.161917,-0.0212 0.09042,0.0861 0.101456,0.0737 0.05925,-0.0667 -0.02852,-0.0949 -0.246657,-0.38005 -0.484741,-0.63364 -0.913065,-0.97253 -1.240188,-1.60914 -1.312474,-2.55418 -0.189755,-2.4808 1.963939,-4.79944 5.555379,-5.98084 0.848594,-0.27914 1.945271,-0.55272 1.999256,-0.49874 0.01761,0.0176 0.05567,0.20462 0.08459,0.41558 l 0.05257,0.38356 -0.793042,0.19365 c -1.164593,0.28437 -2.952042,0.97796 -2.952042,1.14548 0,0.11556 3.569331,4.77546 3.83899,5.01195 0.33048,0.28982 0.808604,0.56804 0.870247,0.5064 0.02026,-0.0203 -0.0023,-0.13985 -0.0502,-0.26576 -0.167208,-0.43979 -0.104207,-0.82966 0.209298,-1.29518 0.162983,-0.24202 0.296333,-0.51774 0.296333,-0.61271 0,-0.095 0.0381,-0.17267 0.08467,-0.17267 0.133521,0 0.09955,-0.39037 -0.08757,-1.00645 -0.159081,-0.52373 -0.167167,-0.68901 -0.105834,-2.16317 0.07328,-1.76118 0.10862,-1.86395 0.583051,-1.69546 0.199733,0.0709 0.253983,0.17406 0.421408,0.80108 0.105691,0.39582 0.328352,1.01697 0.494805,1.38034 0.36222,0.79073 0.51008,1.33565 0.43913,1.61834 -0.03105,0.12372 -0.187898,0.28439 -0.386693,0.39612 -0.183948,0.10339 -0.353646,0.238 -0.377107,0.29914 -0.04448,0.11592 0.123431,0.3288 0.308468,0.39106 0.08661,0.0292 0.08655,0.0613 -3.38e-4,0.1666 -0.08114,0.0983 -0.08525,0.18941 -0.01667,0.36978 0.05256,0.13824 0.08015,0.67001 0.06532,1.25913 -0.01612,0.64055 0.0058,1.01982 0.059,1.01982 0.04926,0 0.07854,-0.23012 0.07002,-0.55033 -0.01096,-0.41203 0.0025,-0.4865 0.05348,-0.29633 l 0.06813,0.254 0.01002,-0.23284 c 0.01114,-0.25889 0.03406,-0.27123 0.269583,-0.14519 0.113537,0.0608 0.163767,0.17763 0.163767,0.381 0,0.1952 0.03972,0.29336 0.1187,0.29336 0.06528,0 1.731805,-0.49248 3.703379,-1.0944 1.971575,-0.60192 3.594615,-1.08446 3.606757,-1.07232 0.05853,0.0585 -1.774363,1.48813 -1.848878,1.44208 -0.09068,-0.056 -4.547851,1.29045 -4.688312,1.41632 -0.04743,0.0425 0.02398,0.0549 0.169334,0.0293 0.138244,-0.0243 0.899054,-0.14174 1.690687,-0.26094 0.791634,-0.1192 1.52978,-0.23869 1.640325,-0.26552 l 0.200991,-0.0488 -0.242719,0.41398 c -0.212234,0.36198 -0.240426,0.48841 -0.224453,1.00664 0.01819,0.59029 0.01734,0.59272 -0.212272,0.60576 -0.126796,0.007 -1.051257,0.0397 -2.054358,0.0723 l -1.823819,0.0592 -0.150731,0.26263 c -0.0829,0.14445 -0.172977,0.45047 -0.200168,0.68005 -0.04075,0.34404 -0.09168,0.44145 -0.289748,0.5541 -0.132171,0.0752 -0.240552,0.16525 -0.240846,0.20018 -9.82e-4,0.11681 -0.462395,0.0615 -0.81213,-0.0973 z m -1.623793,-2.23269 0.759034,-0.34771 -0.0472,-0.29088 c -0.02596,-0.15998 -0.05836,-0.29849 -0.07199,-0.3078 -0.01363,-0.009 -0.298084,-0.19608 -0.632114,-0.41502 -0.809661,-0.53071 -1.144618,-0.91453 -3.027206,-3.46879 -0.881393,-1.19585 -1.638288,-2.17428 -1.68199,-2.17428 -0.32759,0 -1.909608,1.56353 -2.280922,2.25427 -0.32221,0.59939 -0.518226,1.41688 -0.459212,1.91516 0.06651,0.56159 0.51613,1.36888 1.071656,1.92417 l 0.465667,0.46546 2.201334,0.43912 c 1.498095,0.29885 2.319945,0.42553 2.572623,0.39657 0.20421,-0.0234 0.712855,-0.19903 1.130323,-0.39027 z m 6.735415,-0.22585 c 0.08249,-0.0438 0.06822,-0.0949 -0.05861,-0.20964 -0.161443,-0.14611 -0.21696,-0.14341 -1.503253,0.0729 -0.73459,0.12355 -1.355772,0.24479 -1.380404,0.26943 -0.06556,0.0656 2.813547,-0.0643 2.942263,-0.13272 z m 1.012806,1.80872 c -0.03493,-0.0353 -0.0635,-0.27506 -0.0635,-0.53273 0,-0.32923 0.02661,-0.44188 0.08951,-0.37898 0.04923,0.0492 0.07781,0.28896 0.0635,0.53273 -0.01431,0.24377 -0.05459,0.41431 -0.08951,0.37898 z m 4.5085,-6.78821 c 0,-0.19489 -0.15803,-0.35981 -0.344779,-0.35981 -0.09918,0 -0.157443,-0.0992 -0.19455,-0.33126 -0.02913,-0.1822 -0.07858,-0.398 -0.109876,-0.47956 -0.03656,-0.0953 -0.02432,-0.12815 0.03425,-0.0919 0.05709,0.0353 0.07561,-0.003 0.04955,-0.10279 -0.02289,-0.0875 -0.132004,-0.20031 -0.24248,-0.25065 -0.182122,-0.083 -0.203181,-0.15172 -0.225658,-0.73653 l -0.02479,-0.64501 -0.609295,-0.23679 c -0.856937,-0.33302 -1.577228,-0.87881 -2.400119,-1.81866 -0.700637,-0.80022 -0.71402,-0.81014 -1.093619,-0.81057 -0.211365,-2.4e-4 -0.752784,-0.0248 -1.203151,-0.0547 -0.70216,-0.0465 -0.824743,-0.0768 -0.860197,-0.21234 -0.05833,-0.22304 0.128677,-0.29338 0.95577,-0.35952 0.393831,-0.0315 0.732589,-0.0738 0.752794,-0.094 0.03888,-0.0389 -0.316616,-0.48356 -0.946543,-1.18404 l -0.380697,-0.42333 -0.392849,0.381 c -0.216066,0.20955 -0.510334,0.61912 -0.653928,0.91016 -0.210246,0.42614 -0.300029,0.52917 -0.461123,0.52917 -0.544895,0 0.0025,-1.31508 0.93683,-2.25054 1.67943,-1.68152 4.723601,-2.58797 8.288613,-2.46807 2.0978,0.0706 4.096508,0.54657 5.450361,1.29807 0.664873,0.36905 0.787486,0.49433 0.787486,0.80458 0,0.3968 -0.200244,0.38831 -1.018663,-0.0432 -0.743234,-0.39187 -1.839476,-0.81216 -2.118368,-0.81216 -0.10918,0 -0.259414,0.32087 -0.62077,1.32584 -0.262203,0.72922 -0.466937,1.3341 -0.454965,1.34419 0.03428,0.0289 3.251463,-0.11331 3.979933,-0.17592 0.62094,-0.0534 0.656167,-0.0472 0.656167,0.115 0,0.14856 -0.07053,0.17797 -0.529167,0.22067 -0.291042,0.0271 -1.36327,0.12648 -2.382729,0.22086 -1.019461,0.0944 -1.880929,0.18852 -1.914376,0.20919 -0.03345,0.0207 -0.165246,0.33389 -0.29289,0.69604 -0.127643,0.36215 -0.3806,0.94557 -0.562125,1.29649 -0.181526,0.35092 -0.330047,0.66929 -0.330047,0.70748 0,0.0382 0.09525,0.14438 0.211667,0.23595 0.168673,0.13268 0.211666,0.24242 0.211666,0.54029 v 0.37379 l 0.599356,0.30183 c 0.644092,0.32436 0.670181,0.4214 0.169087,0.62896 -0.205257,0.085 -0.294182,0.0736 -0.586486,-0.0756 -0.189499,-0.0967 -0.431787,-0.17415 -0.538417,-0.17216 -0.173026,0.003 -0.154534,0.0382 0.171974,0.32499 l 0.365848,0.32138 -0.225712,0.14789 c -0.217644,0.1426 -0.232429,0.14158 -0.413637,-0.0287 -0.103359,-0.0971 -0.212734,-0.17654 -0.243054,-0.17654 -0.03032,0 -0.07974,0.18554 -0.109822,0.41231 -0.04926,0.37136 -0.0976,0.44494 -0.486682,0.74083 -0.625482,0.47567 -0.649788,0.48717 -0.649788,0.30733 z m 0.422037,-3.93697 c -7.13e-4,-0.29105 -0.03823,-0.58632 -0.08337,-0.65617 -0.0569,-0.0881 -0.08247,0.0742 -0.08337,0.52917 -7.62e-4,0.38186 0.0341,0.65616 0.08337,0.65616 0.04755,0 0.0841,-0.23197 0.08337,-0.52916 z m -0.307461,-0.20328 c 0.03012,-0.35627 0.05476,-0.83348 0.05476,-1.06045 0,-0.3901 -0.01379,-0.41543 -0.252101,-0.46309 -0.138656,-0.0277 -0.295091,-0.10222 -0.347634,-0.16553 -0.07918,-0.0954 -0.155594,-0.0803 -0.446399,0.0882 -0.471487,0.27326 -0.965396,0.33119 -1.864133,0.21866 -0.413196,-0.0517 -0.765133,-0.0802 -0.782083,-0.0632 -0.01695,0.0169 0.26532,0.33666 0.627264,0.71046 0.509358,0.52605 0.762641,0.71918 1.12075,0.85457 0.254468,0.0962 0.529345,0.20133 0.610836,0.23361 0.116782,0.0463 0.148167,0.0147 0.148167,-0.14892 0,-0.17812 0.301299,-0.57968 0.360352,-0.48027 0.01136,0.0191 0.08041,0.14906 0.153447,0.28876 0.07425,0.14202 0.195562,0.24881 0.275166,0.24224 0.09693,-0.008 0.142368,0.0528 0.142368,0.1905 0,0.11124 0.03251,0.20226 0.07224,0.20226 0.03973,0 0.09688,-0.2915 0.127,-0.64778 z m 0.77011,0.18137 c 0.03166,-0.21111 0.126461,-0.4497 0.210675,-0.53021 0.08422,-0.0805 0.216018,-0.27007 0.292897,-0.42125 0.239881,-0.47171 0.640246,-1.62245 0.577007,-1.65845 -0.120863,-0.0688 -1.281572,-0.0505 -1.325707,0.0209 -0.02499,0.0404 0.04949,0.13572 0.165503,0.21173 0.127376,0.0835 0.210939,0.21835 0.210939,0.34049 0,0.17004 -0.05402,0.2114 -0.339027,0.25955 -0.186464,0.0315 -0.321133,0.0862 -0.299262,0.12162 0.02187,0.0354 0.07751,0.46268 0.123637,0.94953 0.08796,0.92838 0.150019,1.1985 0.259754,1.13068 0.03631,-0.0224 0.09193,-0.21353 0.123584,-0.42463 z m -4.249629,-2.88712 c 0.477002,-0.0749 1.364578,-0.14358 1.97239,-0.15261 1.013511,-0.0151 1.120536,-0.0318 1.291166,-0.20248 0.10233,-0.10233 0.226658,-0.18605 0.276286,-0.18605 0.193591,0 0.417768,0.18333 0.417768,0.34165 0,0.19272 -0.0108,0.1921 0.925841,0.0535 l 0.714177,-0.1057 0.525121,-1.43588 c 0.288817,-0.78973 0.511642,-1.45874 0.495168,-1.48669 -0.08055,-0.13664 -1.733003,-0.28725 -3.083641,-0.28104 -2.161925,0.01 -3.823142,0.3467 -5.376333,1.08988 -1.242363,0.59446 -1.223958,0.46366 -0.219207,1.55798 0.530666,0.57798 0.929884,0.94366 1.030202,0.94366 0.09008,0 0.55406,-0.0613 1.031062,-0.13619 z m 8.91061,5.97819 c -0.891377,-0.4283 -0.772963,-0.42961 0.180587,-0.002 0.41291,0.18516 0.693596,0.33459 0.623746,0.33206 -0.06985,-0.003 -0.4318,-0.15106 -0.804333,-0.33006 z m -1.143,-0.508 c -0.06985,-0.0451 -0.0889,-0.0821 -0.04233,-0.0821 0.04657,0 0.141817,0.0369 0.211667,0.0821 0.06985,0.0451 0.0889,0.0821 0.04233,0.0821 -0.04657,0 -0.141816,-0.0369 -0.211666,-0.0821 z m -0.338667,-0.17433 c 0,-0.0493 0.0381,-0.0661 0.08467,-0.0373 0.04657,0.0288 0.08467,0.0691 0.08467,0.0897 0,0.0205 -0.0381,0.0373 -0.08467,0.0373 -0.04657,0 -0.08467,-0.0403 -0.08467,-0.0897 z"
         style="fill:#000900;stroke-width:0.0846667" />
    </g>
  </g>
</svg>
